<?xml version="1.0" standalone="no"?>
<!DOCTYPE svg PUBLIC "-//W3C//DTD SVG 20010904//EN"
 "http://www.w3.org/TR/2001/REC-SVG-20010904/DTD/svg10.dtd">
<svg version="1.0" xmlns="http://www.w3.org/2000/svg"
 width="1024.000000pt" height="1024.000000pt" viewBox="0 0 1024.000000 1024.000000"
 preserveAspectRatio="xMidYMid meet">

<g transform="translate(0.000000,1024.000000) scale(0.100000,-0.100000)"
fill="#000000" stroke="none">
<path d="M5985 7866 c-22 -7 -161 -62 -310 -121 -632 -250 -945 -372 -979
-381 -36 -9 -76 -49 -76 -77 0 -33 34 -73 67 -81 16 -4 52 -14 81 -22 l53 -15
-3 -267 c-4 -305 -9 -328 -93 -437 -25 -31 -45 -63 -45 -71 0 -49 56 -92 104
-80 20 5 24 1 29 -23 12 -58 76 -88 128 -61 38 21 52 68 57 200 3 90 0 149
-12 211 -11 61 -16 144 -16 291 l0 206 58 -15 c31 -8 130 -34 219 -59 89 -24
165 -44 167 -44 3 0 7 55 8 122 l3 121 195 78 c107 43 236 90 285 105 155 46
332 34 601 -41 30 -8 78 -22 108 -30 l54 -15 7 -106 7 -106 27 7 c14 4 118 45
231 92 113 47 248 101 300 120 52 19 105 41 118 49 36 24 26 91 -18 114 -11 6
-77 26 -147 44 -71 19 -339 93 -598 165 -258 73 -492 134 -520 137 -28 2 -68
-2 -90 -10z"/>
<path d="M5965 7355 c-69 -15 -218 -69 -355 -129 l-95 -42 3 -140 4 -140 -38
-44 c-58 -70 -119 -169 -148 -242 -35 -90 -53 -182 -71 -377 -28 -296 -82
-464 -194 -599 -128 -153 -326 -246 -648 -304 -177 -31 -420 -31 -538 1 -187
50 -373 170 -472 304 -55 75 -77 126 -97 221 -17 81 -42 141 -73 168 -34 31
-94 50 -136 44 -134 -22 -223 -144 -234 -323 l-6 -81 -39 -18 c-91 -41 -128
-114 -128 -256 0 -83 25 -196 50 -221 4 -5 -7 -31 -26 -58 -80 -119 -47 -303
77 -427 47 -47 51 -54 46 -89 -24 -196 132 -381 400 -472 34 -11 117 -32 184
-45 67 -14 123 -26 124 -28 2 -2 23 -47 48 -101 137 -292 363 -525 652 -669
87 -44 218 -100 261 -112 14 -4 26 -23 37 -60 10 -29 31 -72 47 -95 32 -43
104 -101 127 -101 10 0 13 -37 13 -190 l0 -190 -867 0 c-986 0 -910 6 -920
-83 -5 -41 -2 -49 25 -77 l30 -30 2162 0 c1931 0 2164 2 2191 15 56 29 63 115
12 155 -25 20 -36 20 -653 20 -345 0 -641 3 -657 6 -17 3 -35 17 -44 33 -29
50 -71 61 -228 61 l-141 0 0 143 0 142 36 20 c69 37 144 155 144 228 0 18 23
33 138 88 310 151 539 346 712 607 194 292 276 546 287 882 5 150 2 193 -16
299 -28 162 -74 298 -172 501 -118 246 -119 297 -11 414 37 39 82 99 99 132
l33 61 107 47 c235 102 362 190 347 239 -12 40 -46 79 -108 124 -67 49 -204
119 -254 129 -26 5 -41 20 -78 76 -58 86 -148 175 -234 230 -36 24 -68 47 -72
53 -4 5 -8 31 -8 56 0 25 -3 73 -6 107 l-7 60 -91 26 c-223 62 -402 79 -531
51z m321 -416 c186 -33 356 -129 433 -246 l31 -46 -60 -63 c-35 -36 -72 -88
-87 -121 -49 -107 -31 -236 41 -289 l26 -19 -54 -64 c-88 -102 -119 -171 -124
-268 -3 -47 1 -103 8 -130 6 -26 51 -131 100 -233 140 -295 165 -395 165 -665
-1 -251 -35 -404 -140 -620 -142 -294 -369 -534 -653 -692 -475 -262 -1066
-282 -1551 -52 -304 144 -495 327 -618 589 -102 218 -91 208 -275 245 -220 45
-355 102 -429 182 -22 25 -38 47 -35 50 3 3 29 -4 58 -16 74 -29 173 -51 236
-51 46 0 58 4 83 29 63 64 16 137 -101 156 -208 34 -460 218 -460 336 0 19 4
18 40 -15 121 -109 296 -216 354 -216 49 0 86 33 86 76 0 54 -14 70 -118 138
-118 76 -210 160 -265 240 -41 61 -86 172 -87 214 0 27 26 92 37 92 4 0 22
-24 38 -52 43 -75 206 -235 306 -302 108 -72 162 -84 203 -43 30 30 35 80 10
115 -8 12 -49 45 -91 73 -94 63 -199 166 -246 240 -45 70 -77 164 -77 224 0
43 25 124 35 113 3 -2 14 -40 25 -83 57 -224 240 -419 514 -549 l109 -52 -35
-22 c-36 -22 -68 -74 -68 -108 0 -36 43 -105 96 -152 l54 -48 -21 -40 c-26
-51 -21 -114 16 -189 29 -60 122 -167 179 -206 24 -16 37 -34 41 -58 10 -54
43 -110 99 -169 251 -266 756 -327 1170 -141 121 55 234 130 329 219 99 92
137 147 137 195 0 49 -44 95 -91 95 -27 0 -48 -15 -138 -104 -122 -120 -205
-178 -334 -235 -114 -50 -185 -68 -310 -82 -186 -21 -382 20 -513 107 -52 34
-62 44 -39 39 130 -29 205 -23 243 20 26 31 28 57 5 96 -21 36 -46 45 -158 59
-102 13 -206 45 -280 86 -53 30 -165 132 -165 151 0 6 16 17 35 23 30 10 48 8
122 -14 140 -40 226 -49 395 -43 171 6 226 18 259 53 31 33 31 85 -1 119 l-23
25 -181 -6 c-195 -7 -295 4 -426 46 -77 25 -191 81 -238 117 l-33 24 90 44
c84 41 95 44 202 50 323 18 644 100 833 212 98 58 236 192 289 280 93 154 149
354 172 622 9 96 23 202 31 235 49 188 210 367 391 435 128 47 275 62 399 40z
m719 -448 c102 -36 101 -40 -32 -103 -120 -57 -208 -88 -250 -88 -32 0 -45 36
-31 86 14 54 35 81 82 110 36 22 50 25 106 21 36 -3 92 -14 125 -26z m-1403
-3381 c-35 -32 -97 -41 -120 -18 -10 10 2 16 55 29 96 24 103 23 65 -11z
m-734 -10 c35 0 43 -15 12 -25 -24 -8 -94 11 -109 29 -10 12 -6 13 26 5 21 -5
53 -9 71 -9z m402 -50 c19 -45 81 -104 132 -125 l45 -19 7 -81 c8 -104 8 -214
-1 -255 l-6 -33 -93 5 c-89 5 -94 6 -120 37 -41 49 -61 56 -184 61 l-115 5 -3
70 c-2 39 -1 97 3 131 6 57 8 61 39 72 42 15 116 80 136 118 21 40 28 44 91
44 53 0 57 -2 69 -30z"/>
<path d="M6204 6636 c-45 -20 -64 -52 -64 -109 0 -42 5 -54 34 -83 25 -25 43
-34 68 -34 46 0 96 34 114 76 21 50 2 110 -45 141 -39 26 -63 28 -107 9z"/>
<path d="M6145 5631 c-47 -20 -57 -45 -71 -180 -18 -172 -4 -210 78 -211 48 0
83 40 91 107 26 210 18 260 -44 282 -18 6 -32 11 -33 10 -1 0 -10 -4 -21 -8z"/>
<path d="M6002 4963 c-27 -11 -132 -248 -132 -298 0 -39 42 -95 70 -95 30 0
68 21 84 46 9 12 36 68 61 123 53 119 58 169 20 206 -23 24 -69 32 -103 18z"/>
</g>
</svg>
