<?xml version="1.0" encoding="UTF-8"?>
<svg version="1.1" xmlns="http://www.w3.org/2000/svg" width="767" height="265">
<path d="M0 0 C253.11 0 506.22 0 767 0 C767 87.45 767 174.9 767 265 C513.89 265 260.78 265 0 265 C0 177.55 0 90.1 0 0 Z " fill="#3EAF72" transform="translate(0,0)"/>
<path d="M0 0 C62.05 0 62.05 0 81.34375 17.2265625 C88.19320924 24.37820377 93.5828952 32.67889746 97 42 C97.5878125 43.546875 97.5878125 43.546875 98.1875 45.125 C103.13715024 62.63914701 100.95110517 83.57339144 92.9375 99.8125 C82.65724337 117.41688797 68.19059937 126.24282019 49 132 C32.83 132 16.66 132 0 132 C0 88.44 0 44.88 0 0 Z " fill="#F9FCFA" transform="translate(335,71)"/>
<path d="M0 0 C0.77843262 0.17756836 1.55686523 0.35513672 2.35888672 0.53808594 C8.80301737 2.05044326 15.0362728 3.95944958 21.25 6.25 C21.745 8.725 21.745 8.725 22.25 11.25 C19.64802798 12.25605593 17.04370638 13.25502525 14.4375 14.25 C13.69951172 14.53617188 12.96152344 14.82234375 12.20117188 15.1171875 C11.48896484 15.38789062 10.77675781 15.65859375 10.04296875 15.9375 C9.3883667 16.18886719 8.73376465 16.44023438 8.05932617 16.69921875 C6.25 17.25 6.25 17.25 3.25 17.25 C3.56424267 20.32259503 4.27820236 21.27728951 6.54296875 23.46875 C7.49816406 24.2215625 8.45335937 24.974375 9.4375 25.75 C10.4275 26.54019531 11.4175 27.33039063 12.4375 28.14453125 C14.5732195 29.7433546 16.63006125 31.12292552 18.9375 32.4375 C19.700625 33.035625 20.46375 33.63375 21.25 34.25 C21.39453125 37.36328125 21.39453125 37.36328125 21.25 40.25 C20.50234375 40.63671875 19.7546875 41.0234375 18.984375 41.421875 C17.99953125 41.94265625 17.0146875 42.4634375 16 43 C15.02546875 43.51046875 14.0509375 44.0209375 13.046875 44.546875 C10.29712084 46.2213063 8.31573955 47.78848792 6.25 50.25 C5.12260941 57.29619117 8.40617134 63.37538104 11.3671875 69.59765625 C14.851321 80.06547326 11.95598293 92.36964084 7.43359375 102.02734375 C2.6811662 110.95186941 -4.61037458 118.28706869 -13.625 122.875 C-17.63608847 124.92604524 -19.23017874 126.89317905 -20.75 131.25 C-21.41 131.25 -22.07 131.25 -22.75 131.25 C-22.75 134.22 -22.75 137.19 -22.75 140.25 C-20.8009375 140.2190625 -20.8009375 140.2190625 -18.8125 140.1875 C-17.45834367 140.16600546 -16.10243917 140.17851801 -14.75 140.25 C-14.42 140.58 -14.09 140.91 -13.75 141.25 C-11.01483535 141.4815292 -8.29909439 141.65365931 -5.55859375 141.78515625 C-4.73875504 141.82813339 -3.91891632 141.87111053 -3.07423401 141.91539001 C-0.4455285 142.0521706 2.18345612 142.1824015 4.8125 142.3125 C6.59051694 142.40386695 8.36851212 142.49565821 10.14648438 142.58789062 C14.51408538 142.81352536 18.88194768 143.03328505 23.25 143.25 C22.92 144.9 22.59 146.55 22.25 148.25 C-17.02 148.25 -56.29 148.25 -96.75 148.25 C-96.75 143.25 -96.75 143.25 -95.75 142.25 C-94.27645652 142.15695982 -92.79849409 142.13253735 -91.32202148 142.13647461 C-90.38112167 142.13655014 -89.44022186 142.13662567 -88.47080994 142.13670349 C-87.44790359 142.14186478 -86.42499725 142.14702606 -85.37109375 142.15234375 C-83.808395 142.15446617 -83.808395 142.15446617 -82.21412659 142.15663147 C-78.87188906 142.1622492 -75.52971743 142.1748047 -72.1875 142.1875 C-69.92773534 142.19251272 -67.66796963 142.19707602 -65.40820312 142.20117188 C-59.85544609 142.21222439 -54.30272775 142.22897976 -48.75 142.25 C-48.87506041 140.82351788 -49.00976099 139.39787909 -49.1484375 137.97265625 C-49.22239746 137.17867432 -49.29635742 136.38469238 -49.37255859 135.56665039 C-50.04234188 131.45567133 -51.65404752 128.88510459 -54.75 126.25 C-57.84674175 124.5036639 -60.97158414 122.88705474 -64.15209961 121.30273438 C-70.94140424 117.83500245 -75.26149759 113.7033256 -78.3125 106.625 C-80.80086386 101.7803978 -86.53112839 100.54302524 -91.33984375 98.8046875 C-95.82162781 96.76144574 -98.7614783 94.37671395 -100.859375 89.86328125 C-101.07078125 89.10402344 -101.2821875 88.34476562 -101.5 87.5625 C-102.4270758 84.32982939 -102.4270758 84.32982939 -103.75 81.25 C-103.83426094 79.5825394 -103.85725143 77.91174813 -103.84765625 76.2421875 C-103.84443359 75.25605469 -103.84121094 74.26992187 -103.83789062 73.25390625 C-103.82951172 72.22136719 -103.82113281 71.18882812 -103.8125 70.125 C-103.80798828 69.08472656 -103.80347656 68.04445313 -103.79882812 66.97265625 C-103.78701952 64.39838038 -103.77055075 61.82421854 -103.75 59.25 C-101.77 58.755 -101.77 58.755 -99.75 58.25 C-99.62882812 57.62351563 -99.50765625 56.99703125 -99.3828125 56.3515625 C-99.21523437 55.53429687 -99.04765625 54.71703125 -98.875 53.875 C-98.71257812 53.06289062 -98.55015625 52.25078125 -98.3828125 51.4140625 C-97.75 49.25 -97.75 49.25 -95.75 47.25 C-92.125 47.125 -92.125 47.125 -88.75 47.25 C-88.39808594 47.97445312 -88.04617187 48.69890625 -87.68359375 49.4453125 C-84.20607786 56.25506946 -80.74301295 61.75349352 -73.75 65.25 C-64.15965111 65.76518403 -54.71397194 66.15455219 -45.75 62.25 C-44.80125 61.87875 -43.8525 61.5075 -42.875 61.125 C-38.84620124 57.57017756 -37.4140769 52.2422307 -35.75 47.25 C-35.64897637 45.5634666 -35.56801328 43.87568686 -35.5 42.1875 C-34.95259924 35.43921522 -32.59983974 29.09983974 -27.75 24.25 C-27.29188325 22.27764667 -27.29188325 22.27764667 -27.125 20.125 C-26.939375 18.206875 -26.939375 18.206875 -26.75 16.25 C-19.4156658 13.15410014 -12.55633418 12.99256804 -4.73291016 13.18554688 C-2.7390959 13.23466186 -0.74441462 13.24577006 1.25 13.25 C1.58 12.92 1.91 12.59 2.25 12.25 C2.25 11.59 2.25 10.93 2.25 10.25 C-1.06219232 10.132209 -4.37383492 10.06222845 -7.6875 10 C-8.61369141 9.96648437 -9.53988281 9.93296875 -10.49414062 9.8984375 C-16.43527004 9.81505323 -20.68171491 10.64172653 -25.97485352 13.38378906 C-27.75 14.25 -27.75 14.25 -29.75 14.25 C-29.75 16.23 -29.75 18.21 -29.75 20.25 C-33.38 19.92 -37.01 19.59 -40.75 19.25 C-40.75 26.51 -40.75 33.77 -40.75 41.25 C-43.225 41.745 -43.225 41.745 -45.75 42.25 C-45.75 41.59 -45.75 40.93 -45.75 40.25 C-47.07 40.25 -48.39 40.25 -49.75 40.25 C-48.875 35.5 -48.875 35.5 -47.75 33.25 C-47.51725791 30.37089412 -47.33027243 27.50853505 -47.1875 24.625 C-47.12272461 23.42230469 -47.12272461 23.42230469 -47.05664062 22.1953125 C-46.95048543 20.2137489 -46.84973145 18.23189729 -46.75 16.25 C-48.07 16.25 -49.39 16.25 -50.75 16.25 C-50.6015625 13.93359375 -50.6015625 13.93359375 -49.75 11.25 C-47.3359375 9.66015625 -47.3359375 9.66015625 -44.125 8.3125 C-42.95710938 7.81492187 -41.78921875 7.31734375 -40.5859375 6.8046875 C-39.30765205 6.28557003 -38.02899462 5.76736775 -36.75 5.25 C-35.40856539 4.6907964 -34.06742184 4.1308941 -32.7265625 3.5703125 C-21.09599447 -1.22464708 -12.28776504 -2.89155208 0 0 Z " fill="#3FAF72" transform="translate(186.75,59.75)"/>
<path d="M0 0 C1.10031303 0.00303635 1.10031303 0.00303635 2.22285461 0.00613403 C2.99192642 0.00438171 3.76099823 0.00262939 4.55337524 0.00082397 C7.10793787 -0.00359483 9.66243185 -0.00065646 12.21699524 0.00271606 C13.98437005 0.00204303 15.75174477 0.00107302 17.51911926 -0.00018311 C21.22815327 -0.00166012 24.93716324 0.00049458 28.64619446 0.00515747 C33.41147017 0.01085476 38.17668956 0.00757577 42.9419632 0.00158501 C46.59295581 -0.00202052 50.24393497 -0.00088206 53.89492798 0.0017128 C55.65248623 0.00238209 57.41004569 0.00155357 59.16760254 -0.00076675 C61.61964678 -0.00329314 64.07159855 0.0005471 66.52363586 0.00613403 C67.25717789 0.0041098 67.99071991 0.00208557 68.74649048 0 C73.7589826 0.02126592 73.7589826 0.02126592 74.87324524 1.13552856 C74.97296309 3.05011138 75.00405112 4.96835174 75.00605774 6.88552856 C75.0073468 8.05084106 75.00863586 9.21615356 75.00996399 10.41677856 C75.0060968 11.64396606 75.00222961 12.87115356 74.99824524 14.13552856 C75.00211243 15.36271606 75.00597961 16.58990356 75.00996399 17.85427856 C75.00867493 19.01959106 75.00738586 20.18490356 75.00605774 21.38552856 C75.00492981 22.46318481 75.00380188 23.54084106 75.00263977 24.65115356 C74.87324524 27.13552856 74.87324524 27.13552856 73.87324524 28.13552856 C72.24649746 28.2289329 70.61570473 28.25298027 68.98628235 28.24905396 C67.94527878 28.24897842 66.90427521 28.24890289 65.83172607 28.24882507 C64.69945084 28.24366379 63.5671756 28.2385025 62.40058899 28.23318481 C60.67141991 28.23106239 60.67141991 28.23106239 58.90731812 28.22889709 C55.2084346 28.22327862 51.5096106 28.21072298 47.81074524 28.19802856 C45.31009507 28.19301595 42.80944395 28.18845263 40.30879211 28.18435669 C34.16356819 28.17415207 28.01847369 28.15458025 21.87324524 28.13552856 C21.87324524 36.38552856 21.87324524 44.63552856 21.87324524 53.13552856 C24.60476868 53.123927 27.33629211 53.11232544 30.15058899 53.10037231 C32.78494653 53.09258214 35.41930281 53.08650516 38.05366516 53.08059692 C39.88993399 53.07555625 41.72619878 53.0687238 43.56245422 53.06008911 C46.19600925 53.04801184 48.8295114 53.04229775 51.46308899 53.03787231 C52.28913132 53.03271103 53.11517365 53.02754974 53.96624756 53.02223206 C55.93560891 53.02203652 57.90486137 53.07348705 59.87324524 53.13552856 C61.64774118 54.9100245 61.00354596 57.48570117 61.00605774 59.88552856 C61.0073468 61.05084106 61.00863586 62.21615356 61.00996399 63.41677856 C61.0060968 64.64396606 61.00222961 65.87115356 60.99824524 67.13552856 C61.00211243 68.36271606 61.00597961 69.58990356 61.00996399 70.85427856 C61.00867493 72.01959106 61.00738586 73.18490356 61.00605774 74.38552856 C61.00492981 75.46318481 61.00380188 76.54084106 61.00263977 77.65115356 C60.87324524 80.13552856 60.87324524 80.13552856 59.87324524 81.13552856 C56.98890704 81.22418064 54.12862366 81.25074152 51.24433899 81.23318481 C49.94799278 81.23106239 49.94799278 81.23106239 48.62545776 81.22889709 C45.85385232 81.22328095 43.08232644 81.21072576 40.31074524 81.19802856 C38.43639744 81.19301564 36.56204839 81.18845238 34.68769836 81.18435669 C30.08282503 81.17415538 25.47812463 81.15458324 20.87324524 81.13552856 C20.87324524 89.71552856 20.87324524 98.29552856 20.87324524 107.13552856 C24.68758118 107.123927 28.50191711 107.11232544 32.43183899 107.10037231 C36.10867734 107.09258314 39.78551478 107.08650559 43.46235657 107.08059692 C46.02616281 107.07555486 48.58996615 107.06872142 51.15376282 107.06008911 C54.82979545 107.04801792 58.50579022 107.04229914 62.18183899 107.03787231 C63.33598801 107.03271103 64.49013702 107.02754974 65.67926025 107.02223206 C67.27079674 107.02211876 67.27079674 107.02211876 68.89448547 107.02200317 C69.83380417 107.01978256 70.77312286 107.01756195 71.74090576 107.01527405 C73.87324524 107.13552856 73.87324524 107.13552856 74.87324524 108.13552856 C74.97284145 109.97711879 75.00404934 111.82249823 75.00605774 113.66677856 C75.0073468 114.78697388 75.00863586 115.90716919 75.00996399 117.06130981 C75.0060968 118.240802 75.00222961 119.42029419 74.99824524 120.63552856 C75.00211243 121.81502075 75.00597961 122.99451294 75.00996399 124.20974731 C75.00867493 125.32994263 75.00738586 126.45013794 75.00605774 127.60427856 C75.00492981 128.64004028 75.00380188 129.675802 75.00263977 130.74295044 C74.87324524 133.13552856 74.87324524 133.13552856 73.87324524 134.13552856 C71.41419302 134.23584736 68.98321096 134.27171037 66.52363586 134.2649231 C65.75456406 134.26667542 64.98549225 134.26842773 64.19311523 134.27023315 C61.63855261 134.27465196 59.08405863 134.27171359 56.52949524 134.26834106 C54.76212043 134.2690141 52.99474571 134.26998411 51.22737122 134.27124023 C47.51833721 134.27271725 43.80932724 134.27056255 40.10029602 134.26589966 C35.33502031 134.26020237 30.56980092 134.26348135 25.80452728 134.26947212 C22.15353467 134.27307765 18.50255551 134.27193919 14.8515625 134.26934433 C13.09400425 134.26867504 11.33644479 134.26950356 9.57888794 134.27182388 C7.1268437 134.27435027 4.67489193 134.27051003 2.22285461 134.2649231 C1.48931259 134.26694733 0.75577057 134.26897156 0 134.27105713 C-5.01249212 134.24979121 -5.01249212 134.24979121 -6.12675476 133.13552856 C-6.22515183 131.42958765 -6.25307504 129.71954886 -6.2537384 128.01077271 C-6.25655823 126.90017487 -6.25937805 125.78957703 -6.26228333 124.64532471 C-6.26025909 123.41619354 -6.25823486 122.18706238 -6.25614929 120.92068481 C-6.25790161 119.63467377 -6.25965393 118.34866272 -6.26145935 117.02368164 C-6.26603329 113.48658692 -6.26424429 109.94952125 -6.26108027 106.41242599 C-6.25855646 102.71864491 -6.26089426 99.02486638 -6.26246643 95.33108521 C-6.26428807 89.1268977 -6.26188197 82.92272208 -6.25712585 76.71853638 C-6.25168324 69.53569492 -6.2534459 62.35288185 -6.25895226 55.17004108 C-6.26348356 49.01379051 -6.26413386 42.85754851 -6.26151359 36.70129681 C-6.25995091 33.01971153 -6.25975681 29.33813961 -6.26305008 25.65655518 C-6.26646288 21.55447699 -6.26173878 17.45244809 -6.25614929 13.35037231 C-6.25817352 12.12124115 -6.26019775 10.89210999 -6.26228333 9.62573242 C-6.2594635 8.51513458 -6.25664368 7.40453674 -6.2537384 6.26028442 C-6.25336138 5.28909164 -6.25298435 4.31789886 -6.2525959 3.317276 C-6.00993346 -0.88983907 -3.64915145 0.01548184 0 0 Z " fill="#F5FAF8" transform="translate(249.1267547607422,69.86447143554688)"/>
<path d="M0 0 C1.10031303 0.00303635 1.10031303 0.00303635 2.22285461 0.00613403 C2.99192642 0.00438171 3.76099823 0.00262939 4.55337524 0.00082397 C7.10793787 -0.00359483 9.66243185 -0.00065646 12.21699524 0.00271606 C13.98437005 0.00204303 15.75174477 0.00107302 17.51911926 -0.00018311 C21.22815327 -0.00166012 24.93716324 0.00049458 28.64619446 0.00515747 C33.41147017 0.01085476 38.17668956 0.00757577 42.9419632 0.00158501 C46.59295581 -0.00202052 50.24393497 -0.00088206 53.89492798 0.0017128 C55.65248623 0.00238209 57.41004569 0.00155357 59.16760254 -0.00076675 C61.61964678 -0.00329314 64.07159855 0.0005471 66.52363586 0.00613403 C67.25717789 0.0041098 67.99071991 0.00208557 68.74649048 0 C73.7589826 0.02126592 73.7589826 0.02126592 74.87324524 1.13552856 C74.97296309 3.05011138 75.00405112 4.96835174 75.00605774 6.88552856 C75.0073468 8.05084106 75.00863586 9.21615356 75.00996399 10.41677856 C75.0060968 11.64396606 75.00222961 12.87115356 74.99824524 14.13552856 C75.00211243 15.36271606 75.00597961 16.58990356 75.00996399 17.85427856 C75.00867493 19.01959106 75.00738586 20.18490356 75.00605774 21.38552856 C75.00492981 22.46318481 75.00380188 23.54084106 75.00263977 24.65115356 C74.87324524 27.13552856 74.87324524 27.13552856 73.87324524 28.13552856 C72.24649746 28.2289329 70.61570473 28.25298027 68.98628235 28.24905396 C67.94527878 28.24897842 66.90427521 28.24890289 65.83172607 28.24882507 C64.69945084 28.24366379 63.5671756 28.2385025 62.40058899 28.23318481 C60.67141991 28.23106239 60.67141991 28.23106239 58.90731812 28.22889709 C55.2084346 28.22327862 51.5096106 28.21072298 47.81074524 28.19802856 C45.31009507 28.19301595 42.80944395 28.18845263 40.30879211 28.18435669 C34.16356819 28.17415207 28.01847369 28.15458025 21.87324524 28.13552856 C21.87324524 36.38552856 21.87324524 44.63552856 21.87324524 53.13552856 C26.07881165 53.11812622 26.07881165 53.11812622 30.36933899 53.10037231 C33.07319526 53.09258223 35.7770503 53.08650519 38.48091125 53.08059692 C40.36568254 53.07555612 42.25044989 53.06872358 44.13520813 53.06008911 C46.8382616 53.04801239 49.54126355 53.04229788 52.24433899 53.03787231 C53.0922551 53.03271103 53.9401712 53.02754974 54.81378174 53.02223206 C56.83395592 53.02203662 58.85402458 53.07346646 60.87324524 53.13552856 C62.64774118 54.9100245 62.00354596 57.48570117 62.00605774 59.88552856 C62.0073468 61.05084106 62.00863586 62.21615356 62.00996399 63.41677856 C62.0060968 64.64396606 62.00222961 65.87115356 61.99824524 67.13552856 C62.00211243 68.36271606 62.00597961 69.58990356 62.00996399 70.85427856 C62.00867493 72.01959106 62.00738586 73.18490356 62.00605774 74.38552856 C62.00492981 75.46318481 62.00380188 76.54084106 62.00263977 77.65115356 C61.87324524 80.13552856 61.87324524 80.13552856 60.87324524 81.13552856 C57.98890704 81.22418064 55.12862366 81.25074152 52.24433899 81.23318481 C50.94799278 81.23106239 50.94799278 81.23106239 49.62545776 81.22889709 C46.85385232 81.22328095 44.08232644 81.21072576 41.31074524 81.19802856 C39.43639744 81.19301564 37.56204839 81.18845238 35.68769836 81.18435669 C31.0828498 81.17330628 26.47806103 81.15603086 21.87324524 81.13552856 C21.87546585 81.78476791 21.87768646 82.43400726 21.87997437 83.10292053 C21.90202526 89.83440605 21.91715101 96.56588138 21.92817688 103.2973938 C21.93321887 105.81269751 21.94005226 108.32799828 21.94868469 110.84329224 C21.96075618 114.44982631 21.96647473 118.05632179 21.97090149 121.66287231 C21.97606277 122.79514755 21.98122406 123.92742279 21.98654175 125.0940094 C21.98665504 126.65551476 21.98665504 126.65551476 21.98677063 128.24856567 C21.98899124 129.17011948 21.99121185 130.09167328 21.99349976 131.04115295 C21.87324524 133.13552856 21.87324524 133.13552856 20.87324524 134.13552856 C18.95866242 134.23524642 17.04042207 134.26633445 15.12324524 134.26834106 C13.95793274 134.26963013 12.79262024 134.27091919 11.59199524 134.27224731 C10.36480774 134.26838013 9.13762024 134.26451294 7.87324524 134.26052856 C6.64605774 134.26439575 5.41887024 134.26826294 4.15449524 134.27224731 C2.98918274 134.27095825 1.82387024 134.26966919 0.62324524 134.26834106 C-0.45441101 134.26721313 -1.53206726 134.26608521 -2.64237976 134.2649231 C-5.12675476 134.13552856 -5.12675476 134.13552856 -6.12675476 133.13552856 C-6.22515183 131.42958765 -6.25307504 129.71954886 -6.2537384 128.01077271 C-6.25655823 126.90017487 -6.25937805 125.78957703 -6.26228333 124.64532471 C-6.26025909 123.41619354 -6.25823486 122.18706238 -6.25614929 120.92068481 C-6.25790161 119.63467377 -6.25965393 118.34866272 -6.26145935 117.02368164 C-6.26603329 113.48658692 -6.26424429 109.94952125 -6.26108027 106.41242599 C-6.25855646 102.71864491 -6.26089426 99.02486638 -6.26246643 95.33108521 C-6.26428807 89.1268977 -6.26188197 82.92272208 -6.25712585 76.71853638 C-6.25168324 69.53569492 -6.2534459 62.35288185 -6.25895226 55.17004108 C-6.26348356 49.01379051 -6.26413386 42.85754851 -6.26151359 36.70129681 C-6.25995091 33.01971153 -6.25975681 29.33813961 -6.26305008 25.65655518 C-6.26646288 21.55447699 -6.26173878 17.45244809 -6.25614929 13.35037231 C-6.25817352 12.12124115 -6.26019775 10.89210999 -6.26228333 9.62573242 C-6.2594635 8.51513458 -6.25664368 7.40453674 -6.2537384 6.26028442 C-6.25336138 5.28909164 -6.25298435 4.31789886 -6.2525959 3.317276 C-6.00993346 -0.88983907 -3.64915145 0.01548184 0 0 Z " fill="#F5FAF7" transform="translate(490.1267547607422,69.86447143554688)"/>
<path d="M0 0 C10.23 0 20.46 0 31 0 C38.0887115 12.95523136 45.1334372 25.925787 52 39 C54.77129122 35.68961829 57.00233082 32.42507637 59.0234375 28.61328125 C59.57 27.59169922 60.1165625 26.57011719 60.6796875 25.51757812 C61.23914063 24.45990234 61.79859375 23.40222656 62.375 22.3125 C64.03258881 19.19290236 65.69464273 16.08010341 67.41064453 12.9921875 C69.03850563 10.05012138 69.03850563 10.05012138 70.21044922 7.0234375 C71.54415379 4.06780144 72.57046987 2.16006063 75 0 C80.1724329 -1.22480687 85.12565203 -0.94768087 90.375 -0.625 C91.79281219 -0.57479189 93.21079477 -0.52917258 94.62890625 -0.48828125 C98.08949952 -0.37853182 101.54366362 -0.20630107 105 0 C104.21821688 4.3552528 102.7531795 7.9534792 100.75 11.875 C100.22817139 12.90778076 100.22817139 12.90778076 99.69580078 13.96142578 C96.08190141 21.01139037 92.15430762 27.88080405 88.22851562 34.76025391 C83.79959826 42.53645997 79.4964068 50.37319439 75.25 58.25 C74.33710205 59.93778564 74.33710205 59.93778564 73.40576172 61.65966797 C72.8438916 62.70525879 72.28202148 63.75084961 71.703125 64.828125 C71.20458008 65.7552832 70.70603516 66.68244141 70.19238281 67.63769531 C68.22705051 71.53133892 67.8579548 74.53650835 67.79467773 78.84838867 C67.77473251 80.0494072 67.75478729 81.25042572 67.73423767 82.48783875 C67.71752518 83.78478165 67.70081268 85.08172455 67.68359375 86.41796875 C67.66301707 87.7589023 67.64202041 89.09982946 67.62062073 90.44075012 C67.56547373 93.96701889 67.51603206 97.49334548 67.46777344 101.01971436 C67.4175045 104.61931484 67.36189866 108.21883259 67.30664062 111.81835938 C67.19864478 118.87884277 67.0995648 125.93937248 67 133 C57.76 133 48.52 133 39 133 C39.03480469 129.7928125 39.06960938 126.585625 39.10546875 123.28125 C39.12897075 120.12028897 39.1471265 116.95933826 39.16479492 113.79833984 C39.17973476 111.62804698 39.20009404 109.4577835 39.22631836 107.28759766 C39.52891285 81.57299952 35.21765168 62.19522701 21.26953125 40.28125 C16.37002583 32.50890025 11.9322281 24.51576825 7.5625 16.4375 C6.934646 15.28233887 6.30679199 14.12717773 5.65991211 12.93701172 C5.07218018 11.84275879 4.48444824 10.74850586 3.87890625 9.62109375 C3.3485376 8.6355249 2.81816895 7.64995605 2.27172852 6.63452148 C1 4 1 4 0 0 Z " fill="#FAFDFB" transform="translate(572,71)"/>
<path d="M0 0 C0.77843262 0.17756836 1.55686523 0.35513672 2.35888672 0.53808594 C8.80301737 2.05044326 15.0362728 3.95944958 21.25 6.25 C21.745 8.725 21.745 8.725 22.25 11.25 C19.64802798 12.25605593 17.04370638 13.25502525 14.4375 14.25 C13.69951172 14.53617188 12.96152344 14.82234375 12.20117188 15.1171875 C11.48896484 15.38789062 10.77675781 15.65859375 10.04296875 15.9375 C9.3883667 16.18886719 8.73376465 16.44023438 8.05932617 16.69921875 C6.25 17.25 6.25 17.25 3.25 17.25 C3.56424267 20.32259503 4.27820236 21.27728951 6.54296875 23.46875 C7.49816406 24.2215625 8.45335937 24.974375 9.4375 25.75 C10.4275 26.54019531 11.4175 27.33039063 12.4375 28.14453125 C14.5732195 29.7433546 16.63006125 31.12292552 18.9375 32.4375 C19.700625 33.035625 20.46375 33.63375 21.25 34.25 C21.39453125 37.36328125 21.39453125 37.36328125 21.25 40.25 C20.50234375 40.63671875 19.7546875 41.0234375 18.984375 41.421875 C17.99953125 41.94265625 17.0146875 42.4634375 16 43 C15.02546875 43.51046875 14.0509375 44.0209375 13.046875 44.546875 C10.29712084 46.2213063 8.31573955 47.78848792 6.25 50.25 C5.12260941 57.29619117 8.40617134 63.37538104 11.3671875 69.59765625 C14.851321 80.06547326 11.95598293 92.36964084 7.43359375 102.02734375 C2.6811662 110.95186941 -4.61037458 118.28706869 -13.625 122.875 C-17.63608847 124.92604524 -19.23017874 126.89317905 -20.75 131.25 C-21.41 131.25 -22.07 131.25 -22.75 131.25 C-22.75 134.22 -22.75 137.19 -22.75 140.25 C-20.8009375 140.2190625 -20.8009375 140.2190625 -18.8125 140.1875 C-17.45834367 140.16600546 -16.10243917 140.17851801 -14.75 140.25 C-14.42 140.58 -14.09 140.91 -13.75 141.25 C-11.01483535 141.4815292 -8.29909439 141.65365931 -5.55859375 141.78515625 C-4.73875504 141.82813339 -3.91891632 141.87111053 -3.07423401 141.91539001 C-0.4455285 142.0521706 2.18345612 142.1824015 4.8125 142.3125 C6.59051694 142.40386695 8.36851212 142.49565821 10.14648438 142.58789062 C14.51408538 142.81352536 18.88194768 143.03328505 23.25 143.25 C22.92 144.9 22.59 146.55 22.25 148.25 C-17.02 148.25 -56.29 148.25 -96.75 148.25 C-96.75 143.25 -96.75 143.25 -95.75 142.25 C-94.27645652 142.15695982 -92.79849409 142.13253735 -91.32202148 142.13647461 C-90.38112167 142.13655014 -89.44022186 142.13662567 -88.47080994 142.13670349 C-87.44790359 142.14186478 -86.42499725 142.14702606 -85.37109375 142.15234375 C-83.808395 142.15446617 -83.808395 142.15446617 -82.21412659 142.15663147 C-78.87188906 142.1622492 -75.52971743 142.1748047 -72.1875 142.1875 C-69.92773534 142.19251272 -67.66796963 142.19707602 -65.40820312 142.20117188 C-59.85544609 142.21222439 -54.30272775 142.22897976 -48.75 142.25 C-48.87506041 140.82351788 -49.00976099 139.39787909 -49.1484375 137.97265625 C-49.22239746 137.17867432 -49.29635742 136.38469238 -49.37255859 135.56665039 C-50.04234188 131.45567133 -51.65404752 128.88510459 -54.75 126.25 C-57.84674175 124.5036639 -60.97158414 122.88705474 -64.15209961 121.30273438 C-70.94140424 117.83500245 -75.26149759 113.7033256 -78.3125 106.625 C-80.80086386 101.7803978 -86.53112839 100.54302524 -91.33984375 98.8046875 C-95.82162781 96.76144574 -98.7614783 94.37671395 -100.859375 89.86328125 C-101.07078125 89.10402344 -101.2821875 88.34476562 -101.5 87.5625 C-102.4270758 84.32982939 -102.4270758 84.32982939 -103.75 81.25 C-103.83426094 79.5825394 -103.85725143 77.91174813 -103.84765625 76.2421875 C-103.84443359 75.25605469 -103.84121094 74.26992187 -103.83789062 73.25390625 C-103.82951172 72.22136719 -103.82113281 71.18882812 -103.8125 70.125 C-103.80798828 69.08472656 -103.80347656 68.04445313 -103.79882812 66.97265625 C-103.78701952 64.39838038 -103.77055075 61.82421854 -103.75 59.25 C-101.77 58.755 -101.77 58.755 -99.75 58.25 C-99.62882812 57.62351563 -99.50765625 56.99703125 -99.3828125 56.3515625 C-99.21523437 55.53429687 -99.04765625 54.71703125 -98.875 53.875 C-98.71257812 53.06289062 -98.55015625 52.25078125 -98.3828125 51.4140625 C-97.75 49.25 -97.75 49.25 -95.75 47.25 C-92.125 47.125 -92.125 47.125 -88.75 47.25 C-88.39808594 47.97445312 -88.04617187 48.69890625 -87.68359375 49.4453125 C-84.20607786 56.25506946 -80.74301295 61.75349352 -73.75 65.25 C-64.15965111 65.76518403 -54.71397194 66.15455219 -45.75 62.25 C-44.80125 61.87875 -43.8525 61.5075 -42.875 61.125 C-38.84620124 57.57017756 -37.4140769 52.2422307 -35.75 47.25 C-35.64897637 45.5634666 -35.56801328 43.87568686 -35.5 42.1875 C-34.95259924 35.43921522 -32.59983974 29.09983974 -27.75 24.25 C-27.29188325 22.27764667 -27.29188325 22.27764667 -27.125 20.125 C-26.939375 18.206875 -26.939375 18.206875 -26.75 16.25 C-19.4156658 13.15410014 -12.55633418 12.99256804 -4.73291016 13.18554688 C-2.7390959 13.23466186 -0.74441462 13.24577006 1.25 13.25 C1.58 12.92 1.91 12.59 2.25 12.25 C2.25 11.59 2.25 10.93 2.25 10.25 C-1.06219232 10.132209 -4.37383492 10.06222845 -7.6875 10 C-8.61369141 9.96648437 -9.53988281 9.93296875 -10.49414062 9.8984375 C-16.43527004 9.81505323 -20.68171491 10.64172653 -25.97485352 13.38378906 C-27.75 14.25 -27.75 14.25 -29.75 14.25 C-29.75 16.23 -29.75 18.21 -29.75 20.25 C-33.38 19.92 -37.01 19.59 -40.75 19.25 C-40.75 26.51 -40.75 33.77 -40.75 41.25 C-43.225 41.745 -43.225 41.745 -45.75 42.25 C-45.75 41.59 -45.75 40.93 -45.75 40.25 C-47.07 40.25 -48.39 40.25 -49.75 40.25 C-48.875 35.5 -48.875 35.5 -47.75 33.25 C-47.51725791 30.37089412 -47.33027243 27.50853505 -47.1875 24.625 C-47.12272461 23.42230469 -47.12272461 23.42230469 -47.05664062 22.1953125 C-46.95048543 20.2137489 -46.84973145 18.23189729 -46.75 16.25 C-48.07 16.25 -49.39 16.25 -50.75 16.25 C-50.6015625 13.93359375 -50.6015625 13.93359375 -49.75 11.25 C-47.3359375 9.66015625 -47.3359375 9.66015625 -44.125 8.3125 C-42.95710938 7.81492187 -41.78921875 7.31734375 -40.5859375 6.8046875 C-39.30765205 6.28557003 -38.02899462 5.76736775 -36.75 5.25 C-35.40856539 4.6907964 -34.06742184 4.1308941 -32.7265625 3.5703125 C-21.09599447 -1.22464708 -12.28776504 -2.89155208 0 0 Z M-26.27124023 31.05810547 C-27.87524094 33.43563863 -28.43692586 35.23110091 -29.03125 38.0234375 C-29.23363281 38.9309375 -29.43601562 39.8384375 -29.64453125 40.7734375 C-29.84433594 41.71445313 -30.04414063 42.65546875 -30.25 43.625 C-32.07452206 52.1472837 -33.6593681 59.51714868 -40.75 65.25 C-49.46464697 70.15991544 -60.05195019 71.37809716 -69.75 73.25 C-69.5015999 75.69722042 -69.5015999 75.69722042 -68.75 78.25 C-62.02068542 82.00288698 -55.29220996 81.56042632 -47.75 81.25 C-48.08 82.57 -48.41 83.89 -48.75 85.25 C-55.35 84.92 -61.95 84.59 -68.75 84.25 C-67.06622777 88.14459074 -67.06622777 88.14459074 -64.75 90.25 C-62.17948089 91.10541401 -59.58382414 91.77736924 -56.96484375 92.46875 C-54.75 93.25 -54.75 93.25 -53.75 95.25 C-55.07 95.25 -56.39 95.25 -57.75 95.25 C-56.4410428 98.37197478 -56.4410428 98.37197478 -53.75 100.25 C-42.43289964 101.32697835 -35.15954213 98.57668547 -26.4765625 91.51953125 C-24.75 90.25 -24.75 90.25 -21.75 89.25 C-25.31091576 96.37183152 -29.38198283 99.49029498 -36.8034668 102.6171875 C-40.0797911 103.68231137 -43.34630362 103.68368442 -46.75 103.625 C-47.75933594 103.64240234 -47.75933594 103.64240234 -48.7890625 103.66015625 C-55.21514635 103.62293955 -59.8041548 102.02758523 -64.55078125 97.69140625 C-65.37964844 96.74136719 -66.20851562 95.79132813 -67.0625 94.8125 C-67.90425781 93.86503906 -68.74601562 92.91757813 -69.61328125 91.94140625 C-73.08358363 87.57022098 -76.10514772 81.99717084 -75.55859375 76.23046875 C-75.47738281 75.55628906 -75.39617187 74.88210937 -75.3125 74.1875 C-75.30431287 70.27799842 -75.30431287 70.27799842 -77.60546875 68.5859375 C-79.21411637 67.56249121 -80.84398147 66.5717208 -82.4921875 65.61328125 C-87.3203854 62.69798529 -89.43463872 58.22802675 -91.75 53.25 C-92.41 53.25 -93.07 53.25 -93.75 53.25 C-94.30779998 58.71643978 -93.4813727 61.49927429 -90.19140625 65.6796875 C-88.24033669 67.80524296 -86.05384673 69.52211495 -83.75 71.25 C-83.42 71.91 -83.09 72.57 -82.75 73.25 C-88.20111321 70.66789374 -92.92518523 67.86861108 -97.75 64.25 C-97.349842 69.71882606 -95.32688682 73.23892461 -91.75 77.25 C-90.76 77.91 -89.77 78.57 -88.75 79.25 C-88.42 80.24 -88.09 81.23 -87.75 82.25 C-88.29269531 81.96125 -88.83539063 81.6725 -89.39453125 81.375 C-90.10996094 81.00375 -90.82539062 80.6325 -91.5625 80.25 C-92.27019531 79.87875 -92.97789063 79.5075 -93.70703125 79.125 C-95.83920729 78.05314642 -95.83920729 78.05314642 -98.75 78.25 C-97.23660052 82.48751854 -94.56008791 84.05187236 -90.75 86.25 C-88.75379834 86.92795528 -86.75461299 87.59733531 -84.75 88.25 C-84.42 88.91 -84.09 89.57 -83.75 90.25 C-86.72 90.25 -89.69 90.25 -92.75 90.25 C-89.82541072 93.57868944 -87.6956793 94.77883503 -83.4375 95.875 C-77.67408426 97.80382313 -75.3764212 100.59963039 -72.28515625 105.71484375 C-67.02915738 114.39459761 -58.53418741 120.31458935 -48.66796875 122.80859375 C-35.84027628 124.74906129 -24.34286788 123.78149446 -13.1953125 116.60546875 C-10.93192597 114.91745489 -8.83368669 113.15426944 -6.75 111.25 C-5.77740234 110.36248047 -5.77740234 110.36248047 -4.78515625 109.45703125 C1.90193565 103.05269165 6.14931917 96.67813303 6.62109375 87.23828125 C6.66095964 85.34664472 6.68239498 83.45454968 6.6875 81.5625 C6.69136719 80.57733398 6.69523437 79.59216797 6.69921875 78.57714844 C6.59525676 72.03837252 5.64553236 67.32389386 2.37109375 61.58203125 C0.4900012 57.66909657 0.46262665 53.48523979 1.25 49.25 C1.91 48.59 2.57 47.93 3.25 47.25 C3.39069 44.44059665 3.24471132 41.68838138 3.125 38.87890625 C3.25 36.25 3.25 36.25 5.25 33.25 C5.39768913 30.73250172 5.39768913 30.73250172 4.25 28.25 C-1.61316726 23.66143432 -6.38523184 22.78797053 -13.6640625 22.83203125 C-19.28649815 23.59355102 -22.72196277 26.83952917 -26.27124023 31.05810547 Z " fill="#E9F7EE" transform="translate(186.75,59.75)"/>
<path d="M0 0 C1.1653125 -0.00128906 2.330625 -0.00257812 3.53125 -0.00390625 C4.7584375 -0.00003906 5.985625 0.00382812 7.25 0.0078125 C9.09078125 0.00201172 9.09078125 0.00201172 10.96875 -0.00390625 C12.71671875 -0.00197266 12.71671875 -0.00197266 14.5 0 C15.57765625 0.00112793 16.6553125 0.00225586 17.765625 0.00341797 C20.25 0.1328125 20.25 0.1328125 21.25 1.1328125 C21.34839707 2.83875341 21.37632028 4.54879221 21.37698364 6.25756836 C21.37980347 7.3681662 21.38262329 8.47876404 21.38552856 9.62301636 C21.38350433 10.85214752 21.3814801 12.08127869 21.37939453 13.34765625 C21.38114685 14.6336673 21.38289917 15.91967834 21.38470459 17.24465942 C21.38927853 20.78175414 21.38748953 24.31881982 21.3843255 27.85591507 C21.3818017 31.54969616 21.3841395 35.24347468 21.38571167 38.93725586 C21.38753331 45.14144337 21.38512721 51.34561898 21.38037109 57.54980469 C21.37492848 64.73264614 21.37669114 71.91545921 21.3821975 79.09829998 C21.3867288 85.25455055 21.3873791 91.41079256 21.38475883 97.56704426 C21.38319615 101.24862954 21.38300205 104.93020146 21.38629532 108.61178589 C21.38970812 112.71386407 21.38498402 116.81589297 21.37939453 120.91796875 C21.38141876 122.14709991 21.38344299 123.37623108 21.38552856 124.64260864 C21.38129883 126.3085054 21.38129883 126.3085054 21.37698364 128.00805664 C21.37660662 128.97924942 21.37622959 129.9504422 21.37584114 130.95106506 C21.25 133.1328125 21.25 133.1328125 20.25 134.1328125 C18.33541718 134.23253036 16.41717683 134.26361839 14.5 134.265625 C13.3346875 134.26691406 12.169375 134.26820313 10.96875 134.26953125 C9.7415625 134.26566406 8.514375 134.26179687 7.25 134.2578125 C6.0228125 134.26167969 4.795625 134.26554688 3.53125 134.26953125 C2.3659375 134.26824219 1.200625 134.26695312 0 134.265625 C-1.07765625 134.26449707 -2.1553125 134.26336914 -3.265625 134.26220703 C-5.75 134.1328125 -5.75 134.1328125 -6.75 133.1328125 C-6.84839707 131.42687159 -6.87632028 129.71683279 -6.87698364 128.00805664 C-6.87980347 126.8974588 -6.88262329 125.78686096 -6.88552856 124.64260864 C-6.88350433 123.41347748 -6.8814801 122.18434631 -6.87939453 120.91796875 C-6.88114685 119.6319577 -6.88289917 118.34594666 -6.88470459 117.02096558 C-6.88927853 113.48387086 -6.88748953 109.94680518 -6.8843255 106.40970993 C-6.8818017 102.71592884 -6.8841395 99.02215032 -6.88571167 95.32836914 C-6.88753331 89.12418163 -6.88512721 82.92000602 -6.88037109 76.71582031 C-6.87492848 69.53297886 -6.87669114 62.35016579 -6.8821975 55.16732502 C-6.8867288 49.01107445 -6.8873791 42.85483244 -6.88475883 36.69858074 C-6.88319615 33.01699546 -6.88300205 29.33542354 -6.88629532 25.65383911 C-6.88970812 21.55176093 -6.88498402 17.44973203 -6.87939453 13.34765625 C-6.88141876 12.11852509 -6.88344299 10.88939392 -6.88552856 9.62301636 C-6.88270874 8.51241852 -6.87988892 7.40182068 -6.87698364 6.25756836 C-6.87660662 5.28637558 -6.87622959 4.3151828 -6.87584114 3.31455994 C-6.62272909 -1.07372336 -3.75729896 0.00393258 0 0 Z " fill="#F4FAF7" transform="translate(450.75,69.8671875)"/>
<path d="M0 0 C15.20406138 0 25.15780665 0.17415081 36.11328125 11.109375 C37.94534425 13.32197357 39.49689786 15.5533745 41 18 C41.433125 18.67933594 41.86625 19.35867187 42.3125 20.05859375 C45.34367407 25.96306824 45.37899101 31.99925322 45.4375 38.5 C45.44773193 39.37817383 45.45796387 40.25634766 45.46850586 41.16113281 C45.31625574 52.5873449 41.82924926 61.58982836 34 70 C23.05712857 78.44742463 14.53432073 78 0 78 C0 52.26 0 26.52 0 0 Z " fill="#41B174" transform="translate(363,98)"/>
<path d="M0 0 C0.77843262 0.17756836 1.55686523 0.35513672 2.35888672 0.53808594 C8.80301737 2.05044326 15.0362728 3.95944958 21.25 6.25 C21.745 8.725 21.745 8.725 22.25 11.25 C19.62646482 12.25399524 17.00132205 13.25334445 14.375 14.25 C13.62863281 14.53617188 12.88226563 14.82234375 12.11328125 15.1171875 C6.4765625 17.25 6.4765625 17.25 4.25 17.25 C3.59 14.94 2.93 12.63 2.25 10.25 C-1.06219232 10.132209 -4.37383492 10.06222845 -7.6875 10 C-8.61369141 9.96648437 -9.53988281 9.93296875 -10.49414062 9.8984375 C-16.43527004 9.81505323 -20.68171491 10.64172653 -25.97485352 13.38378906 C-27.75 14.25 -27.75 14.25 -29.75 14.25 C-29.75 16.23 -29.75 18.21 -29.75 20.25 C-33.38 19.92 -37.01 19.59 -40.75 19.25 C-40.75 26.51 -40.75 33.77 -40.75 41.25 C-43.225 41.745 -43.225 41.745 -45.75 42.25 C-45.75 41.59 -45.75 40.93 -45.75 40.25 C-47.07 40.25 -48.39 40.25 -49.75 40.25 C-48.875 35.5 -48.875 35.5 -47.75 33.25 C-47.51725791 30.37089412 -47.33027243 27.50853505 -47.1875 24.625 C-47.14431641 23.82320312 -47.10113281 23.02140625 -47.05664062 22.1953125 C-46.95048543 20.2137489 -46.84973145 18.23189729 -46.75 16.25 C-48.07 16.25 -49.39 16.25 -50.75 16.25 C-50.6015625 13.93359375 -50.6015625 13.93359375 -49.75 11.25 C-47.3359375 9.66015625 -47.3359375 9.66015625 -44.125 8.3125 C-42.95710937 7.81492187 -41.78921875 7.31734375 -40.5859375 6.8046875 C-39.30765205 6.28557003 -38.02899462 5.76736775 -36.75 5.25 C-35.40856539 4.6907964 -34.06742184 4.1308941 -32.7265625 3.5703125 C-21.09599447 -1.22464708 -12.28776504 -2.89155208 0 0 Z " fill="#ECF8EF" transform="translate(186.75,59.75)"/>
<path d="M0 0 C3.5 0.625 3.5 0.625 5.9375 1.9375 C8.44613556 6.25235316 7.80250762 10.75126606 7.5 15.625 C1.96342706 16.05089023 -2.39665983 14.530247 -7.5 12.625 C-7.86127484 8.83161419 -7.55579543 6.74551813 -5.9375 3.25 C-3.5 0.625 -3.5 0.625 0 0 Z " fill="#49B47A" transform="translate(150.5,187.375)"/>
<path d="M0 0 C0.495 2.97 0.495 2.97 1 6 C0.34 5.34 -0.32 4.68 -1 4 C-3.95522626 3.79984523 -6.79628386 3.72195839 -9.75 3.75 C-10.54921875 3.74226563 -11.3484375 3.73453125 -12.171875 3.7265625 C-16.88509169 3.7420665 -20.53563125 4.35523257 -25 6 C-26.32 6 -27.64 6 -29 6 C-29 8.64 -29 11.28 -29 14 C-29.99 14.495 -29.99 14.495 -31 15 C-31.33 11.37 -31.66 7.74 -32 4 C-22.48546592 -1.43687662 -10.70394819 -3.56798273 0 0 Z " fill="#60BE8B" transform="translate(189,70)"/>
<path d="M0 0 C0.66 0 1.32 0 2 0 C2.32613281 0.61488281 2.65226562 1.22976562 2.98828125 1.86328125 C3.42527344 2.67152344 3.86226563 3.47976562 4.3125 4.3125 C4.74175781 5.11300781 5.17101562 5.91351563 5.61328125 6.73828125 C6.88651545 9.02001605 6.88651545 9.02001605 8.65625 10.625 C10 12 10 12 10.1875 14.6875 C10.125625 15.450625 10.06375 16.21375 10 17 C5.38001062 14.27000628 2.5069544 11.91748748 0 7 C-0.25 3.125 -0.25 3.125 0 0 Z " fill="#59BA86" transform="translate(93,113)"/>
<path d="M0 0 C1.32 1.32 2.64 2.64 4 4 C0.38026598 5.31626692 -2.09567131 6 -6 6 C-6 8.64 -6 11.28 -6 14 C-6.99 14.495 -6.99 14.495 -8 15 C-8.33 11.37 -8.66 7.74 -9 4 C-6.03 2.68 -3.06 1.36 0 0 Z " fill="#66C08F" transform="translate(166,70)"/>
<path d="M0 0 C1.67542976 0.28604898 3.34385343 0.61781233 5 1 C5.04241723 3.33294775 5.04092937 5.66702567 5 8 C4 9 4 9 1.4375 9.0625 C0.633125 9.041875 -0.17125 9.02125 -1 9 C-1.09765625 2.84765625 -1.09765625 2.84765625 -1 1 C-0.67 0.67 -0.34 0.34 0 0 Z " fill="#CEEBDB" transform="translate(175,119)"/>
<path d="M0 0 C0.99 0 1.98 0 3 0 C3.25 6.625 3.25 6.625 1 10 C-0.32 9.67 -1.64 9.34 -3 9 C-2.44271087 5.65626525 -1.64826111 2.96687001 0 0 Z " fill="#E2F4E9" transform="translate(172,137)"/>
<path d="M0 0 C3.91593446 0.78318689 7.36406635 2.39179858 11 4 C11.33 3.01 11.66 2.02 12 1 C12 2.32 12 3.64 12 5 C11.34 5 10.68 5 10 5 C10 5.99 10 6.98 10 8 C6.01328937 6.63312778 3.11505367 4.84804907 0 2 C0 1.34 0 0.68 0 0 Z " fill="#60BD8A" transform="translate(88,138)"/>
<path d="M0 0 C1.134375 0.020625 2.26875 0.04125 3.4375 0.0625 C3.0625 2 3.0625 2 2.4375 4.0625 C-0.27129335 5.41689668 -2.57183268 5.12751451 -5.5625 5.0625 C-4.43693182 0.07784091 -4.43693182 0.07784091 0 0 Z " fill="#58BA84" transform="translate(196.5625,94.9375)"/>
<path d="M0 0 C3.3 0 6.6 0 10 0 C10 0.66 10 1.32 10 2 C6.49223216 3.60355101 3.85645121 4.22036864 0 4 C0 2.68 0 1.36 0 0 Z " fill="#44B176" transform="translate(168,69)"/>
<path d="M0 0 C1.67542976 0.28604898 3.34385343 0.61781233 5 1 C5 2.65 5 4.3 5 6 C3.35 6 1.7 6 0 6 C-0.38218767 4.34385343 -0.71395102 2.67542976 -1 1 C-0.67 0.67 -0.34 0.34 0 0 Z " fill="#C4E8D4" transform="translate(177,91)"/>
</svg>
