<?xml version="1.0" standalone="no"?>
<!DOCTYPE svg PUBLIC "-//W3C//DTD SVG 20010904//EN"
 "http://www.w3.org/TR/2001/REC-SVG-20010904/DTD/svg10.dtd">
<svg version="1.0" xmlns="http://www.w3.org/2000/svg"
 width="228.000000pt" height="242.000000pt" viewBox="0 0 228.000000 242.000000"
 preserveAspectRatio="xMidYMid meet">

<g transform="translate(0.000000,242.000000) scale(0.100000,-0.100000)"
fill="#ffffff" stroke="none">
<path d="M931 2370 c-25 -5 -78 -25 -119 -45 -137 -65 -235 -194 -263 -346
l-12 -67 -29 10 c-16 6 -63 9 -106 7 -221 -11 -386 -211 -369 -449 9 -130 70
-249 165 -322 l41 -32 -6 -75 c-4 -63 -1 -86 17 -135 25 -66 78 -124 142 -157
45 -23 155 -32 209 -17 23 7 28 4 33 -17 9 -36 73 -97 128 -123 142 -66 350
-36 445 64 l32 34 48 -25 c165 -82 389 -50 513 74 55 55 92 127 98 191 l4 47
60 6 c298 27 380 420 120 574 -23 14 -40 28 -38 32 16 25 24 142 15 205 -38
273 -308 444 -541 344 -27 -11 -50 -19 -51 -17 -105 158 -237 237 -407 244
-47 2 -105 0 -129 -5z m212 -65 c32 -8 76 -24 99 -36 65 -33 150 -125 187
-201 35 -75 45 -85 67 -67 10 8 13 22 8 44 -5 29 -3 33 37 51 66 29 177 26
251 -8 112 -52 185 -153 208 -290 13 -74 3 -146 -31 -225 -10 -25 -19 -51 -19
-58 0 -23 30 -25 51 -4 24 24 47 19 95 -23 46 -41 74 -98 81 -164 9 -82 -12
-139 -71 -200 -71 -72 -145 -91 -231 -58 -68 26 -82 27 -89 7 -5 -13 1 -25 23
-44 23 -19 31 -34 31 -59 0 -96 -74 -196 -182 -246 -57 -26 -73 -29 -168 -29
-97 0 -110 2 -165 30 -56 28 -60 32 -57 61 7 65 -52 69 -62 4 -7 -48 -53 -103
-110 -133 -35 -19 -57 -22 -156 -22 -127 0 -167 13 -221 72 -44 47 -46 71 -9
104 33 31 37 61 7 67 -10 2 -35 -12 -55 -30 -132 -120 -350 -34 -369 144 -8
79 0 106 30 101 16 -3 26 1 31 12 9 24 0 34 -49 55 -164 70 -253 285 -196 469
46 148 168 241 317 241 79 0 111 -14 129 -58 10 -23 20 -32 32 -30 16 3 18 14
15 82 -5 139 36 243 131 334 113 106 263 145 410 107z"/>
<path d="M410 628 c-53 -37 -74 -72 -74 -125 1 -92 58 -153 143 -153 120 0
193 134 126 233 -47 68 -131 88 -195 45z m130 -58 c27 -27 41 -65 33 -87 -13
-39 -56 -73 -91 -73 -47 0 -69 14 -82 54 -13 40 5 96 37 115 30 17 81 13 103
-9z"/>
<path d="M271 294 c-38 -16 -66 -73 -56 -113 23 -92 134 -95 171 -5 19 44 18
67 -3 93 -26 31 -73 42 -112 25z m69 -73 c0 -22 -25 -51 -45 -51 -17 0 -27 27
-20 51 9 27 65 27 65 0z"/>
</g>
</svg>
