<?xml version="1.0" standalone="no"?>
<!DOCTYPE svg PUBLIC "-//W3C//DTD SVG 20010904//EN"
 "http://www.w3.org/TR/2001/REC-SVG-20010904/DTD/svg10.dtd">
<svg version="1.0" xmlns="http://www.w3.org/2000/svg"
 width="831.000000pt" height="309.000000pt" viewBox="0 0 831.000000 309.000000"
 preserveAspectRatio="xMidYMid meet">

<g transform="translate(0.000000,309.000000) scale(0.100000,-0.100000)"
fill="#E9E9E9" stroke="none">
<path  d="M0 1545 l0 -1545 4155 0 4155 0 0 1545 0 1545 -4155 0 -4155 0 0
-1545z m7062 1326 c90 -35 176 -97 222 -163 26 -36 46 -56 56 -53 8 2 42 14
75 26 118 42 262 8 365 -88 113 -104 168 -270 137 -416 l-14 -68 29 -15 c136
-70 202 -243 149 -385 -43 -113 -140 -187 -256 -197 l-62 -5 -6 -52 c-13 -130
-129 -249 -281 -290 -100 -27 -232 -18 -315 22 l-63 31 -37 -37 c-136 -136
-436 -125 -541 21 -17 23 -30 47 -30 55 0 11 -6 12 -22 6 -13 -4 -57 -8 -98
-7 -116 1 -195 50 -253 158 -18 34 -22 57 -22 137 l0 96 -39 29 c-21 16 -56
53 -77 83 -134 186 -113 444 47 590 80 73 132 94 241 99 51 2 99 -1 110 -6 16
-10 19 -4 30 56 35 186 180 340 368 389 73 19 216 11 287 -16z m-642 -1724
c95 -63 96 -190 2 -251 -89 -59 -194 -22 -221 77 -17 58 -2 113 41 154 39 37
51 41 104 42 27 1 52 -7 74 -22z m-4405 -59 c64 -33 127 -100 150 -161 27 -70
18 -198 -18 -260 -36 -60 -98 -112 -166 -138 -118 -44 -285 -9 -360 77 -61 69
-76 110 -76 209 0 81 3 95 30 144 36 65 92 114 159 141 75 30 211 24 281 -12z
m1315 0 c30 -14 64 -32 74 -41 19 -14 18 -16 -24 -68 -24 -30 -45 -55 -46 -57
-1 -2 -19 8 -39 22 -84 57 -165 56 -227 -3 -130 -124 -10 -344 157 -289 l40
13 3 78 3 77 69 0 70 0 0 -119 c0 -135 3 -129 -95 -167 -37 -14 -76 -19 -150
-19 -89 0 -106 3 -151 27 -109 57 -164 149 -164 273 0 144 75 246 213 291 68
22 200 13 267 -18z m-2470 -43 l0 -65 -90 0 -90 0 0 -230 0 -230 -80 0 -80 0
0 230 0 230 -85 0 -85 0 0 65 0 65 255 0 255 0 0 -65z m220 -55 l0 -120 115 0
115 0 0 120 0 120 80 0 80 0 0 -295 0 -295 -80 0 -80 0 0 115 0 115 -115 0
-115 0 0 -115 0 -115 -80 0 -80 0 0 295 0 295 80 0 80 0 0 -120z m1330 -80 l0
-200 29 -32 c25 -28 36 -33 76 -33 40 0 51 5 76 33 l29 32 0 200 0 200 86 0
86 0 -4 -207 c-4 -226 -11 -258 -66 -316 -54 -57 -97 -72 -207 -72 -110 0
-153 15 -207 72 -55 58 -62 90 -66 316 l-4 207 86 0 86 0 0 -200z m1260 80 l0
-120 115 0 115 0 0 120 0 120 80 0 80 0 0 -295 0 -295 -80 0 -80 0 0 115 0
115 -115 0 -115 0 0 -115 0 -115 -80 0 -80 0 0 295 0 295 80 0 80 0 0 -120z
m960 55 l0 -65 -90 0 -90 0 0 -230 0 -230 -80 0 -80 0 0 230 0 230 -85 0 -85
0 0 65 0 65 255 0 255 0 0 -65z m220 -230 l0 -295 -80 0 -80 0 0 295 0 295 80
0 80 0 0 -295z m780 176 c36 -65 68 -117 72 -115 3 2 34 56 68 119 l61 115 79
0 c44 0 80 -2 80 -4 0 -3 -47 -94 -105 -203 l-105 -198 0 -92 0 -93 -80 0 -80
0 0 91 0 91 -107 201 -108 200 -3 -56 -3 -57 -139 0 -140 0 0 -70 0 -70 130 0
130 0 0 -60 0 -60 -130 0 -130 0 0 -105 0 -105 -85 0 -85 0 0 295 0 295 308 0
307 0 65 -119z m608 -197 c26 -29 28 -63 7 -104 -45 -86 -153 -78 -170 14 -19
97 98 161 163 90z" />
<path  d="M6786 2824 c-203 -49 -339 -238 -320 -444 6 -59 4 -70 -10 -76 -20
-8 -46 12 -46 36 0 31 -63 53 -144 48 -127 -6 -221 -72 -279 -196 -29 -61 -32
-76 -32 -163 0 -89 2 -99 37 -170 43 -86 92 -138 168 -177 39 -19 55 -33 55
-47 0 -15 -7 -20 -25 -20 -33 0 -40 -11 -40 -64 0 -71 21 -122 70 -171 87 -88
206 -93 300 -13 66 57 113 22 50 -37 -36 -33 -35 -51 7 -100 50 -60 95 -75
223 -75 99 0 121 3 156 22 57 30 103 85 110 133 10 65 69 61 62 -4 -3 -29 1
-33 57 -61 55 -28 68 -30 165 -30 94 0 111 3 165 28 109 51 185 151 185 244 0
37 -4 44 -30 58 -31 16 -36 30 -20 55 8 13 14 13 42 1 107 -44 185 -36 259 27
129 111 112 323 -33 406 l-36 20 -19 -22 c-12 -16 -24 -21 -36 -17 -22 9 -22
23 3 80 84 196 3 430 -177 512 -72 33 -175 37 -246 9 -47 -18 -49 -20 -43 -51
5 -22 2 -36 -8 -44 -22 -18 -33 -7 -67 64 -41 88 -104 155 -186 197 -110 58
-202 70 -317 42z"/>
<path d="M6297 1099 c-32 -19 -50 -75 -37 -115 20 -60 86 -73 139 -28 80 67
-12 195 -102 143z"/>
<path  d="M1816 980 c-64 -20 -106 -83 -106 -160 0 -93 54 -163 135 -175 31 -5
50 -1 84 17 118 63 116 250 -3 307 -45 22 -64 24 -110 11z"/>
<path  d="M6140 745 c-14 -17 -4 -55 15 -55 18 0 49 46 40 60 -9 15 -41 12 -55
-5z"/>
</g>
</svg>
