<?xml version="1.0" standalone="no"?>
<!DOCTYPE svg PUBLIC "-//W3C//DTD SVG 20010904//EN"
 "http://www.w3.org/TR/2001/REC-SVG-20010904/DTD/svg10.dtd">
<svg version="1.0" xmlns="http://www.w3.org/2000/svg"
 width="850.000000pt" height="850.000000pt" viewBox="0 0 850.000000 850.000000"
 preserveAspectRatio="xMidYMid meet">
<metadata>
Created by potrace 1.14, written by Peter Selinger 2001-2017
</metadata>
<g transform="translate(0.000000,850.000000) scale(0.100000,-0.100000)"
fill="#000000" stroke="none">
<path d="M3619 8385 c-2 -2 -19 -5 -38 -8 -33 -6 -68 -27 -43 -27 7 0 12 -4
12 -8 0 -9 -117 -8 -126 1 -11 11 -63 -14 -58 -28 3 -7 1 -16 -5 -20 -6 -3
-11 -2 -11 3 0 12 -30 12 -62 0 -30 -11 -36 -23 -15 -31 6 -3 -6 -4 -29 -2
-44 4 -70 -7 -60 -23 3 -6 -5 -23 -19 -39 l-26 -28 17 28 c10 17 12 27 5 28
-6 1 -17 2 -23 3 -19 2 -28 -16 -16 -31 8 -10 7 -12 -6 -7 -9 3 -16 1 -16 -6
0 -7 -6 -5 -16 5 -19 18 -47 3 -37 -21 3 -8 1 -14 -5 -14 -5 0 -12 -9 -15 -20
-3 -11 -11 -20 -19 -19 -10 0 -10 2 0 6 28 11 5 46 -24 36 -7 -2 -10 -12 -7
-22 4 -15 -1 -17 -26 -13 -24 3 -37 -2 -57 -22 -15 -14 -24 -32 -21 -40 4 -11
-2 -14 -27 -11 -22 2 -40 -4 -59 -21 -15 -13 -27 -26 -27 -30 0 -4 -16 -21
-35 -40 -24 -22 -33 -38 -29 -51 4 -13 3 -14 -3 -5 -7 9 -21 2 -56 -31 -26
-24 -47 -49 -47 -55 0 -7 -6 -12 -14 -12 -8 0 -17 -9 -21 -19 -4 -13 -12 -18
-22 -14 -13 5 -15 1 -9 -23 6 -23 5 -26 -5 -17 -10 10 -19 6 -46 -20 -18 -18
-33 -38 -33 -44 0 -7 -4 -13 -9 -13 -16 0 -19 -50 -3 -59 10 -6 11 -10 3 -15
-6 -4 -11 -2 -11 3 0 18 -37 12 -44 -6 -4 -9 -3 -19 1 -22 20 -15 3 -71 -20
-71 -7 0 -4 5 6 11 9 6 15 14 12 20 -9 14 -35 11 -35 -5 0 -8 -7 -16 -15 -20
-8 -3 -15 -17 -15 -30 0 -14 -9 -31 -21 -40 -17 -12 -21 -22 -17 -48 6 -40 1
-58 -17 -58 -16 0 -28 -27 -15 -35 17 -11 11 -25 -16 -36 -25 -9 -26 -12 -21
-59 5 -41 4 -48 -10 -43 -24 9 -30 -13 -25 -88 4 -59 2 -69 -12 -69 -18 0 -18
-3 -20 -133 -1 -73 -4 -90 -19 -98 -22 -13 -22 -27 1 -31 15 -3 15 -4 1 -10
-11 -4 -20 1 -28 18 -7 15 -7 23 -1 19 14 -9 12 11 -2 23 -17 13 -77 22 -83
12 -8 -13 -54 1 -60 19 -3 10 -13 18 -23 19 -48 5 -296 2 -313 -3 -25 -8 -25
-25 1 -25 11 0 20 -5 20 -11 0 -5 -4 -8 -9 -4 -14 8 -235 10 -248 2 -7 -4 -10
-14 -7 -21 4 -10 -3 -13 -25 -10 -16 2 -33 4 -38 6 -4 1 -18 -1 -29 -5 -16 -6
-21 -14 -17 -30 3 -13 1 -18 -4 -11 -4 5 -21 10 -38 10 -22 -1 -30 -6 -30 -18
0 -10 -4 -17 -9 -17 -5 0 -13 -5 -17 -13 -7 -10 -9 -10 -9 0 0 20 -31 14 -37
-8 -4 -15 -13 -19 -35 -17 -23 1 -31 -3 -33 -15 -2 -11 3 -18 13 -18 12 0 13
-3 4 -12 -8 -8 -15 -8 -26 1 -12 10 -23 8 -55 -11 -23 -13 -41 -29 -41 -35 0
-7 -7 -13 -15 -13 -9 0 -14 -8 -12 -22 2 -20 -2 -22 -29 -20 -24 3 -40 -5 -69
-32 -21 -20 -42 -36 -46 -36 -5 0 -9 -4 -9 -10 0 -5 -16 -26 -35 -46 -40 -41
-44 -55 -13 -46 21 5 21 5 2 -15 -10 -11 -22 -18 -26 -16 -4 2 -13 -5 -20 -17
-7 -11 -21 -20 -30 -20 -10 0 -18 -7 -18 -15 0 -8 -9 -19 -21 -25 -19 -10 -19
-13 -6 -28 13 -14 13 -20 3 -34 -7 -10 -16 -15 -19 -12 -3 4 -13 4 -21 1 -12
-5 -14 -12 -6 -32 8 -21 7 -25 -9 -25 -10 0 -23 -11 -29 -25 -6 -14 -16 -25
-22 -25 -11 0 -9 -37 2 -56 9 -14 0 -24 -17 -18 -7 3 -16 1 -20 -5 -10 -17
-15 -51 -7 -51 8 0 9 -87 0 -95 -3 -3 -5 2 -5 12 0 36 -3 43 -18 43 -23 0 -21
-70 3 -70 16 -1 16 -1 0 -14 -10 -7 -15 -16 -11 -20 4 -3 -4 -5 -18 -4 -20 3
-25 -2 -27 -25 -2 -16 2 -35 9 -43 10 -12 10 -17 1 -23 -11 -7 -10 -20 4 -68
3 -13 2 -23 -3 -23 -5 0 -9 10 -10 21 -2 28 -11 35 -25 21 -6 -6 -10 -31 -9
-54 6 -88 6 -150 0 -153 -3 -2 -4 -19 -3 -37 7 -79 7 -216 0 -226 -4 -7 -3
-12 3 -12 6 0 8 -17 4 -42 -11 -85 -7 -115 16 -135 11 -9 17 -22 14 -29 -3 -8
5 -18 21 -24 14 -5 26 -15 25 -22 0 -10 -2 -10 -6 0 -2 6 -13 12 -24 12 -14 0
-19 -7 -19 -27 0 -37 13 -55 33 -47 13 4 16 2 11 -9 -3 -10 1 -17 13 -20 16
-4 16 -5 1 -6 -14 -1 -18 -10 -18 -37 0 -28 3 -35 18 -32 12 2 16 12 15 31 -1
15 2 27 6 27 9 0 7 -57 -3 -67 -3 -3 4 -11 16 -17 12 -6 23 -18 25 -26 3 -11
1 -10 -7 2 -14 23 -41 12 -37 -16 4 -35 17 -49 32 -36 11 9 13 5 10 -17 -6
-45 4 -65 28 -59 12 3 17 4 11 1 -16 -8 -8 -60 12 -83 38 -41 45 -53 47 -72 1
-11 4 -20 8 -20 3 0 16 -9 29 -20 12 -11 26 -17 30 -15 13 8 21 -27 9 -41 -8
-10 -5 -16 10 -26 12 -7 21 -17 21 -22 0 -11 60 -66 72 -66 5 0 6 -4 3 -10 -3
-5 1 -10 9 -10 14 0 20 -12 17 -32 0 -5 6 -8 14 -8 8 0 19 -9 25 -20 6 -11 15
-18 21 -15 5 4 9 2 9 -4 0 -8 19 -29 80 -85 8 -8 28 -13 43 -11 20 2 27 0 24
-9 -7 -18 2 -28 46 -51 21 -11 41 -24 44 -29 4 -5 0 -6 -7 -1 -10 6 -12 3 -7
-14 5 -20 3 -22 -18 -17 l-23 6 2 -114 c2 -85 -1 -113 -10 -109 -14 5 -27 -41
-19 -69 4 -11 12 -17 19 -15 9 4 12 -25 11 -112 0 -141 3 -164 22 -157 8 3 12
2 9 -2 -2 -4 -1 -14 4 -22 5 -8 5 -19 -1 -26 -14 -17 10 -77 28 -70 12 5 13 0
8 -23 -5 -23 -2 -32 16 -44 14 -11 20 -22 16 -36 -3 -12 2 -26 14 -36 10 -10
21 -30 24 -46 4 -16 13 -29 21 -29 8 0 14 -6 14 -12 0 -14 43 -58 56 -58 5 0
20 -16 33 -35 13 -19 30 -35 38 -35 8 0 11 -5 8 -11 -4 -6 2 -13 14 -16 12 -3
21 -10 21 -16 0 -14 61 -68 70 -62 4 3 15 -4 25 -15 10 -11 23 -20 29 -20 6 0
17 -9 24 -20 15 -24 42 -16 42 14 0 16 2 18 9 6 6 -8 7 -18 5 -22 -3 -4 -1 -8
5 -8 6 0 8 -6 5 -14 -3 -9 3 -17 16 -21 28 -9 37 1 22 25 -7 11 -8 20 -4 20
15 0 47 -44 47 -65 0 -18 7 -20 67 -20 36 0 66 -2 66 -5 -2 -27 10 -28 235
-28 259 -1 294 2 276 24 -9 11 -8 14 5 14 9 0 16 6 16 14 0 8 5 18 10 21 6 4
10 3 9 -2 -7 -38 1 -46 40 -40 l39 5 -2 -41 c-2 -32 3 -47 21 -65 13 -13 21
-27 18 -32 -3 -5 2 -15 10 -23 8 -9 15 -20 15 -26 0 -6 9 -16 20 -23 11 -7 20
-19 20 -26 0 -9 6 -12 15 -8 9 3 18 -1 22 -10 8 -21 51 -64 64 -64 6 0 7 -5 4
-11 -4 -6 2 -13 14 -16 12 -3 21 -11 21 -18 0 -16 61 -66 72 -59 6 4 7 16 4
27 -5 19 -3 19 18 -4 13 -13 22 -27 20 -31 -2 -3 -2 -13 1 -20 8 -20 35 -19
36 1 0 11 2 12 6 3 2 -6 9 -10 14 -6 5 3 9 -4 9 -15 0 -28 21 -37 36 -16 12
16 14 17 20 2 3 -9 10 -15 14 -12 4 3 7 -3 6 -13 0 -9 6 -17 14 -17 8 0 14 8
14 17 -2 23 2 22 25 -1 13 -13 16 -22 9 -29 -6 -6 -5 -13 4 -18 24 -15 53 -15
64 1 10 13 13 12 30 -6 10 -12 19 -24 19 -28 0 -3 43 -6 97 -6 78 0 94 -3 86
-13 -23 -27 9 -35 149 -35 149 0 269 8 305 22 l23 8 -22 7 c-11 4 -25 6 -29 5
-5 -1 -18 -1 -29 0 -15 1 -17 3 -6 10 7 5 30 5 52 0 22 -5 61 -9 87 -9 26 1
60 1 76 1 35 -1 49 7 42 24 -3 9 9 12 52 9 73 -4 91 2 85 25 -6 25 12 34 37
19 17 -11 22 -11 30 2 6 9 5 20 -3 30 -10 12 -9 13 3 5 8 -5 29 -10 45 -10 25
0 29 4 27 21 -2 12 4 24 13 27 8 4 15 2 15 -4 0 -6 10 -9 23 -7 14 2 21 9 20
21 -1 15 4 18 23 14 15 -2 32 3 45 14 11 10 25 19 30 21 6 2 12 12 13 23 2 11
10 19 17 17 8 -2 11 0 7 4 -12 12 12 33 29 27 12 -5 15 -2 10 11 -4 11 -1 19
11 23 9 4 29 19 43 35 14 15 29 28 32 28 4 0 16 8 26 18 49 44 49 44 68 12 17
-29 43 -41 43 -19 0 5 5 7 10 4 6 -4 8 -10 5 -15 -3 -4 1 -13 9 -19 19 -16 49
-3 42 18 -5 12 -3 12 8 -2 8 -11 12 -25 9 -33 -3 -8 5 -18 21 -25 22 -11 28
-10 40 6 12 17 14 16 24 -13 9 -27 16 -32 41 -32 21 0 31 5 31 15 0 8 -6 15
-14 15 -8 0 -17 4 -20 9 -4 5 3 7 14 4 11 -3 25 -14 31 -25 6 -11 16 -17 23
-15 9 4 11 -2 8 -19 -4 -24 -3 -25 42 -21 35 4 48 1 55 -11 11 -19 78 -29 153
-22 65 6 79 4 72 -14 -3 -8 3 -16 13 -18 19 -5 305 -1 333 4 28 6 25 23 -5 29
-22 5 -24 7 -8 8 12 0 33 -3 47 -9 15 -5 28 -6 31 0 3 5 15 7 28 4 40 -9 120
-5 130 5 13 13 5 22 -22 24 -11 1 -21 4 -21 8 0 8 35 5 60 -4 8 -3 33 -5 55
-4 34 2 41 6 43 25 2 16 8 22 18 18 8 -3 14 0 14 7 0 9 3 8 9 -1 12 -20 67
-11 63 10 -2 13 4 16 32 13 21 -2 45 4 62 16 16 10 39 19 50 19 12 0 24 7 28
15 3 8 12 15 19 15 21 0 39 24 27 36 -7 7 2 9 25 6 33 -4 41 2 36 31 0 4 15 7
34 7 19 0 35 4 35 8 0 5 12 14 26 20 14 7 22 17 19 23 -4 6 2 13 14 16 23 6
28 28 9 37 -7 3 -3 3 10 0 18 -4 25 -1 29 15 3 12 12 21 19 21 8 0 17 7 20 15
4 8 12 15 20 15 8 0 14 6 14 13 0 13 43 57 55 57 10 0 55 43 55 53 0 4 9 16
21 28 13 13 18 27 13 41 -4 12 -2 18 4 14 5 -3 16 2 24 12 20 22 50 82 42 82
-3 0 4 8 17 18 12 11 23 31 23 45 1 22 -3 27 -24 28 -23 2 -23 2 -2 6 12 2 22
11 22 20 0 9 6 13 14 10 17 -7 27 24 15 46 -6 9 -5 18 0 21 5 3 7 16 4 29 -3
15 -2 18 5 9 21 -30 49 55 30 92 -7 12 -7 21 1 25 6 4 8 19 6 34 -4 19 -1 27
9 27 18 0 22 13 25 75 2 28 5 52 8 55 2 3 76 5 164 6 101 0 163 4 170 11 8 8
5 13 -10 18 -12 3 -21 11 -21 16 0 6 6 7 13 2 17 -11 64 -16 114 -14 20 1 40
33 35 54 -3 12 16 8 20 -5 5 -15 39 -20 54 -7 7 5 10 20 7 32 -3 13 -1 18 4
12 4 -6 23 -12 41 -13 26 -3 32 0 32 16 0 16 6 20 26 17 16 -1 30 4 37 16 7
11 16 19 22 19 15 0 46 39 48 60 0 10 6 16 12 14 12 -4 59 36 68 59 3 9 11 17
17 17 5 0 10 7 10 15 0 9 9 15 21 15 15 0 19 5 15 15 -3 10 1 15 14 15 10 0
22 9 25 20 3 11 13 20 21 20 17 0 19 36 2 43 -10 4 -10 6 0 6 7 1 11 5 8 9 -3
5 5 8 17 8 12 -1 21 4 20 11 -2 7 6 17 17 23 16 8 19 18 16 46 -4 28 -2 34 10
30 19 -7 44 42 26 52 -7 5 -8 13 -2 22 5 8 4 22 -2 34 -9 17 -8 19 3 9 15 -15
43 -18 34 -4 -3 5 -1 13 5 16 8 5 8 11 0 19 -5 7 -9 25 -8 40 2 20 6 25 20 20
23 -7 28 17 26 126 0 47 0 105 1 130 1 44 -4 114 -9 135 -1 6 -2 12 0 15 1 3
3 16 5 30 2 14 5 30 6 35 8 26 -13 83 -31 88 -12 3 -18 11 -15 19 3 7 -4 17
-17 23 -12 6 -23 17 -25 25 -3 10 0 9 11 -4 21 -26 38 -10 33 31 -6 42 -12 49
-31 34 -11 -9 -17 -8 -30 4 -23 23 -20 32 4 10 11 -10 20 -16 21 -14 12 54 9
69 -16 75 -23 6 -26 11 -21 35 6 32 -4 43 -45 48 -6 0 -3 8 5 17 17 16 15 24
-18 61 -15 17 -22 20 -33 11 -11 -8 -12 -7 -7 6 4 11 2 16 -6 14 -7 -2 -15 3
-17 10 -3 6 0 12 6 12 22 0 9 19 -67 99 -63 66 -80 79 -91 69 -11 -11 -14 -10
-18 0 -3 6 -9 9 -15 6 -5 -3 -8 0 -6 7 1 8 -10 27 -26 44 -26 28 -29 29 -41
12 -11 -15 -13 -15 -18 -2 -4 8 -12 13 -19 11 -7 -1 -10 -1 -5 1 12 7 8 33 -6
33 -7 0 -20 9 -30 20 -18 22 -67 28 -67 8 0 -22 -15 4 -31 53 -9 27 -13 52 -9
54 5 3 7 13 5 23 -1 9 0 11 2 5 7 -20 19 -15 31 12 7 15 9 50 5 91 -5 50 -3
65 5 60 24 -15 32 43 32 239 -1 210 -6 255 -30 240 -5 -3 -7 34 -5 81 2 48 -1
98 -6 111 -8 22 -11 23 -26 12 -9 -8 -14 -9 -10 -3 4 6 -5 24 -18 38 -27 30
-34 46 -10 26 18 -15 36 -5 32 18 -4 26 -17 43 -28 37 -5 -4 -9 -1 -9 5 0 6
-4 8 -10 5 -6 -3 -7 1 -4 9 3 9 10 16 15 16 4 0 7 6 5 13 -3 6 -7 25 -11 40
-4 21 -9 26 -18 19 -8 -7 -19 -5 -34 8 -28 22 -30 35 -3 18 24 -16 33 -7 25
25 -4 16 -12 24 -20 21 -18 -7 -29 14 -16 30 18 22 -14 43 -36 25 -16 -13 -17
-12 -4 4 11 14 11 17 -2 17 -8 0 -21 8 -28 18 -12 15 -12 16 2 4 13 -10 19
-10 29 2 14 18 5 36 -19 36 -14 0 -17 6 -13 26 3 18 0 30 -12 36 -9 5 -16 16
-16 23 0 14 -12 19 -32 16 -5 0 -8 8 -8 19 0 13 -7 20 -19 20 -10 0 -21 7 -25
15 -3 8 -1 15 4 15 17 0 11 25 -10 38 -11 7 -20 19 -20 27 0 8 -7 15 -15 15
-9 0 -18 7 -21 15 -4 8 -13 15 -21 15 -8 0 -12 4 -9 9 10 16 -82 90 -116 93
-26 2 -32 7 -30 21 3 15 -1 17 -17 12 -16 -5 -19 -2 -16 13 4 25 -65 79 -76
60 -5 -7 3 -22 17 -35 13 -12 24 -25 24 -29 0 -4 -8 0 -17 10 -10 9 -29 25
-42 36 -18 15 -21 23 -12 33 13 16 5 27 -20 27 -10 0 -20 -8 -22 -17 -4 -16
-5 -16 -6 -1 -1 11 -8 15 -23 12 -13 -2 -17 -2 -10 2 16 8 16 34 -1 34 -7 0
-18 -5 -25 -12 -8 -8 -12 -9 -12 -1 0 6 -10 9 -22 6 -17 -3 -19 -2 -9 5 19 13
6 42 -18 42 -15 0 -19 -5 -16 -21 3 -12 1 -18 -3 -15 -4 4 -7 13 -7 19 -1 7
-6 11 -12 10 -6 -1 -9 6 -6 16 3 14 -2 20 -24 24 -36 7 -49 -6 -28 -27 15 -15
15 -16 0 -16 -9 0 -19 9 -22 19 -3 13 -12 18 -24 16 -16 -3 -19 0 -14 16 8 24
-29 41 -62 28 -13 -5 -25 -4 -28 2 -4 5 -12 6 -18 2 -7 -4 -21 -8 -32 -10 -11
-1 -14 1 -7 3 6 3 12 12 12 20 0 10 -14 14 -47 16 -121 4 -175 2 -180 -5 -2
-4 -10 -4 -16 0 -16 10 -67 11 -94 1 -13 -4 -23 -4 -23 0 0 11 -141 9 -159 -2
-12 -8 -11 -11 3 -21 13 -10 2 -12 -59 -9 -72 4 -77 3 -100 -22 -14 -15 -25
-33 -25 -40 0 -8 -4 -14 -9 -14 -4 0 -6 11 -4 23 4 20 1 23 -18 22 -13 -1 -25
-8 -27 -16 -7 -21 -24 -29 -49 -22 -13 3 -24 0 -24 -6 -1 -6 -2 -17 -3 -23 -1
-9 -18 -12 -60 -9 -39 2 -56 0 -52 -7 3 -6 2 -13 -3 -17 -10 -6 -7 27 4 46 8
12 -40 85 -61 93 -7 3 -11 11 -8 19 2 7 -4 22 -16 32 -11 10 -20 22 -20 27 0
11 -78 88 -90 88 -5 0 -10 4 -10 9 0 12 -43 56 -63 64 -10 4 -15 12 -12 18 4
6 -2 13 -14 16 -12 3 -21 10 -21 17 -1 6 -12 20 -26 31 -14 11 -36 30 -47 42
-14 14 -27 19 -35 14 -11 -6 -8 -14 12 -36 34 -36 33 -41 -3 -14 -16 12 -32
30 -34 41 -4 13 -10 17 -19 12 -10 -6 -10 -4 1 9 12 15 9 21 -11 18 -5 0 -8 6
-8 15 0 9 -17 22 -40 31 -22 9 -40 20 -40 25 0 4 -6 8 -14 8 -8 0 -18 9 -21
20 -4 11 -10 18 -15 15 -5 -3 -22 -7 -39 -9 -25 -3 -29 -1 -20 10 14 17 3 34
-23 34 -15 0 -19 -5 -15 -20 3 -11 1 -20 -4 -20 -5 0 -10 6 -10 13 -4 44 -18
66 -41 64 -15 -1 -18 -7 -15 -24 2 -12 0 -20 -4 -17 -5 3 -9 12 -9 20 0 8 -8
14 -17 14 -15 0 -16 2 -3 10 8 5 11 12 7 16 -12 12 -67 13 -67 2 0 -6 -6 -6
-15 2 -8 6 -18 9 -24 6 -5 -3 -7 2 -4 13 6 23 -10 34 -37 26 -26 -8 -25 -24 3
-35 16 -6 17 -9 5 -9 -20 -1 -50 27 -43 39 3 4 -4 6 -16 3 -16 -5 -20 -2 -17
13 2 16 -4 20 -39 22 -44 3 -53 -4 -31 -26 6 -6 9 -15 5 -18 -3 -4 -11 5 -18
19 -8 18 -18 24 -34 22 -15 -1 -22 2 -18 10 2 7 0 16 -5 19 -14 8 -83 19 -107
17 -29 -3 -71 -4 -150 -2 -38 1 -124 0 -190 -2 -66 -2 -130 0 -141 4 -12 4
-24 6 -25 4z m66 -45 c-3 -5 -11 -10 -16 -10 -6 0 -7 5 -4 10 3 6 11 10 16 10
6 0 7 -4 4 -10z m425 0 c13 -8 13 -10 -2 -10 -9 0 -20 5 -23 10 -8 13 5 13 25
0z m-525 -10 c3 -6 -1 -7 -9 -4 -18 7 -21 14 -7 14 6 0 13 -4 16 -10z m-95
-24 c0 -2 -7 -7 -16 -10 -8 -3 -12 -2 -9 4 6 10 25 14 25 6z m-153 -42 c-3 -3
-12 -4 -19 -1 -8 3 -5 6 6 6 11 1 17 -2 13 -5z m539 -128 c21 0 31 -5 30 -15
-1 -12 14 -16 74 -18 91 -3 152 -3 202 1 33 3 37 0 35 -18 -2 -19 3 -21 61
-21 54 0 62 -2 62 -19 0 -15 7 -17 45 -14 25 2 45 0 45 -4 0 -5 -5 -8 -12 -8
-6 0 -3 -7 8 -15 21 -16 79 -21 69 -5 -3 6 -3 10 2 10 15 0 28 -15 28 -32 0
-10 3 -18 8 -18 4 0 14 0 22 0 13 0 14 4 5 20 -6 11 -7 20 -3 20 5 0 16 -17
25 -38 17 -41 54 -56 44 -19 -5 19 -4 18 15 -1 10 -12 19 -27 19 -35 0 -7 14
-24 31 -36 25 -19 33 -21 40 -10 7 11 11 12 17 1 5 -7 15 -11 23 -9 8 2 11 2
7 0 -5 -3 -8 -9 -8 -14 0 -13 118 -129 131 -129 5 0 9 -7 9 -15 0 -8 7 -15 15
-15 8 0 15 7 15 16 0 10 8 6 25 -14 26 -31 33 -48 15 -37 -6 4 -7 -1 -3 -10 8
-21 51 -65 63 -65 6 0 10 -5 10 -11 0 -20 53 -69 65 -59 8 6 10 -1 7 -25 -3
-25 0 -36 12 -41 9 -3 16 -15 16 -25 0 -17 3 -18 20 -9 19 10 21 8 18 -22 -2
-41 7 -59 28 -51 11 4 14 -2 12 -24 -2 -32 9 -56 23 -48 5 4 9 2 9 -3 0 -5 10
-14 23 -20 l22 -11 -25 2 c-21 2 -24 -2 -22 -23 2 -14 10 -32 17 -40 7 -8 15
-28 17 -45 2 -19 9 -30 18 -30 17 0 36 -38 21 -43 -12 -4 -3 -32 10 -32 5 0
18 -9 29 -20 16 -16 30 -19 86 -16 49 2 69 7 76 20 5 9 15 16 23 16 11 0 13
20 10 98 -3 119 -2 112 -20 112 -8 0 -15 9 -15 20 0 12 5 17 14 14 17 -7 30
24 16 41 -10 12 -4 25 12 25 5 0 7 -4 4 -9 -3 -5 1 -12 10 -15 20 -8 54 2 54
15 0 5 6 9 14 9 8 0 27 5 43 11 27 10 27 11 9 25 -12 8 -14 14 -7 14 7 0 20 8
29 18 10 10 13 12 8 5 -5 -8 -7 -16 -4 -19 9 -9 53 -14 71 -8 15 5 16 8 5 21
-10 13 -9 15 7 11 11 -2 27 4 35 12 8 9 11 10 6 3 -5 -7 -7 -13 -5 -14 20 -5
399 -3 399 2 0 10 62 -8 70 -20 11 -18 68 -22 84 -6 19 19 26 19 26 0 0 -8 6
-14 13 -13 6 2 11 -5 9 -14 -3 -21 37 -36 49 -17 4 8 3 19 -3 26 -7 9 -7 13 1
13 10 0 15 -14 12 -34 -1 -5 6 -5 16 -2 14 6 15 4 6 -5 -17 -17 -4 -39 24 -39
14 0 31 -7 38 -17 7 -9 21 -17 31 -18 10 0 37 -17 58 -37 42 -39 55 -40 57 -5
1 21 1 21 9 2 4 -11 10 -30 15 -42 4 -13 13 -23 20 -23 8 0 17 -9 20 -20 3
-11 11 -20 16 -20 12 0 129 -121 129 -132 0 -5 6 -8 14 -8 7 0 16 -9 19 -21 3
-12 10 -18 16 -14 15 8 14 45 -1 45 -6 0 -8 3 -5 6 15 15 37 -19 30 -45 -11
-41 -6 -61 20 -87 21 -21 26 -22 37 -9 10 12 10 18 -1 33 -13 15 -12 16 4 3
10 -8 15 -21 12 -32 -4 -12 1 -22 15 -29 11 -6 20 -16 20 -23 0 -8 -3 -7 -9 2
-13 21 -41 6 -34 -18 6 -23 28 -28 37 -8 3 6 4 3 3 -8 -1 -11 -5 -22 -8 -25
-13 -10 11 -52 26 -46 8 3 15 1 15 -4 0 -6 6 -10 14 -10 8 0 18 -5 22 -12 5
-7 2 -9 -9 -5 -8 3 -21 0 -27 -8 -8 -10 -6 -17 12 -29 18 -13 22 -24 19 -55
-2 -31 2 -43 18 -53 12 -7 21 -16 21 -21 0 -4 10 -18 23 -30 13 -12 16 -16 7
-9 -27 20 -31 14 -29 -39 3 -53 12 -69 26 -44 6 9 8 -9 6 -47 -3 -82 -4 -379
0 -445 1 -41 -1 -49 -11 -41 -21 18 -26 1 -24 -80 1 -42 -1 -72 -6 -65 -14 22
-35 -3 -30 -36 3 -22 0 -31 -9 -31 -7 0 -19 -12 -25 -26 -10 -21 -9 -27 3 -35
8 -5 20 -6 28 -4 11 5 12 3 1 -10 -7 -8 -16 -12 -21 -9 -5 3 -9 -1 -9 -9 0 -8
-8 -14 -17 -13 -12 1 -18 -6 -18 -19 0 -13 6 -19 18 -18 18 1 18 0 0 -17 -13
-12 -22 -15 -31 -7 -21 17 -40 -8 -24 -33 16 -26 6 -49 -19 -43 -16 5 -19 0
-19 -33 0 -35 34 -104 53 -104 4 0 15 -8 25 -18 44 -44 179 -4 201 58 9 27 25
36 54 31 4 -1 17 -3 29 -5 12 -1 24 -8 26 -14 2 -7 13 -12 24 -12 16 0 19 5
15 21 -4 16 -3 18 9 8 7 -6 11 -15 8 -20 -3 -5 0 -9 5 -9 6 0 11 -5 11 -12 0
-18 81 -90 95 -84 7 2 21 -4 30 -14 10 -11 21 -18 25 -15 4 2 17 -7 28 -20 12
-14 26 -25 31 -25 5 0 11 -7 15 -15 4 -11 -4 -8 -24 7 -17 12 -30 25 -30 30 0
4 -7 8 -15 8 -23 0 -18 -11 20 -54 19 -22 35 -44 35 -49 0 -5 9 -7 19 -4 12 3
22 -1 25 -10 3 -8 1 -11 -4 -8 -6 3 -10 -5 -10 -19 0 -14 2 -26 4 -26 2 0 11
-3 20 -6 11 -4 16 -1 16 10 0 20 16 21 24 1 3 -9 0 -15 -8 -15 -8 0 -17 -7
-20 -16 -7 -19 11 -57 25 -49 5 4 9 1 9 -5 0 -6 4 -9 9 -5 11 6 41 -22 41 -38
0 -7 -5 -4 -11 6 -15 25 -41 22 -37 -5 2 -15 9 -22 21 -22 19 2 21 -12 17
-104 -2 -70 8 -116 23 -103 9 7 12 -17 12 -94 0 -64 -3 -98 -9 -88 -7 13 -10
13 -17 2 -16 -25 -10 -91 9 -105 16 -12 16 -13 0 -14 -11 0 -16 -6 -13 -19 3
-16 -2 -19 -23 -18 -19 1 -26 -2 -24 -12 2 -8 5 -31 7 -53 3 -35 2 -38 -16
-33 -15 5 -19 2 -19 -15 0 -17 5 -21 19 -17 13 3 18 1 14 -9 -2 -7 -11 -10
-19 -7 -10 3 -14 -2 -14 -18 0 -17 -3 -20 -9 -11 -6 10 -15 7 -39 -13 -32 -27
-34 -54 -3 -56 11 0 9 -3 -6 -9 -16 -6 -21 -15 -17 -27 5 -14 4 -15 -4 -4 -11
16 -32 7 -32 -14 0 -9 -6 -12 -16 -8 -10 4 -17 -1 -21 -16 -3 -11 -10 -21 -15
-21 -6 0 -8 -8 -6 -18 4 -14 0 -18 -16 -18 -14 1 -21 -5 -20 -16 1 -10 -4 -18
-11 -18 -7 0 -16 -11 -19 -25 -6 -24 -26 -36 -26 -15 0 6 4 10 8 10 5 0 9 7 9
15 0 19 -26 19 -33 0 -4 -8 -12 -15 -19 -15 -18 0 -28 -32 -13 -42 18 -11 5
-10 -28 2 -27 11 -60 -3 -49 -20 3 -5 -7 -21 -21 -37 -15 -15 -24 -22 -20 -15
4 7 5 19 2 27 -6 17 -36 9 -36 -10 0 -8 -10 -15 -22 -17 -13 -2 -22 -8 -21
-13 0 -6 -5 -16 -13 -23 -13 -12 -14 -10 -8 12 5 21 2 26 -12 27 -46 4 -80 -2
-90 -16 -12 -16 -84 -21 -84 -6 0 12 -52 24 -112 25 -28 1 -47 -3 -47 -9 3
-29 -3 -38 -11 -17 -5 12 -16 22 -25 22 -8 0 -15 6 -15 14 0 17 -38 28 -58 17
-12 -7 -11 -10 3 -24 18 -18 16 -20 -9 -11 -9 3 -16 12 -16 20 0 8 -8 14 -17
14 -12 0 -14 3 -6 8 14 9 7 22 -22 40 -40 24 -68 33 -78 23 -5 -5 -19 -6 -31
-2 -11 4 -39 7 -61 7 -46 -2 -85 -33 -85 -66 0 -27 28 -25 40 3 6 16 9 18 9 5
1 -10 -10 -25 -24 -34 -32 -21 -32 -41 -1 -55 23 -11 43 -49 26 -49 -4 0 -10
9 -13 21 -7 26 -31 20 -35 -9 -2 -15 2 -22 12 -22 9 0 16 -6 16 -12 0 -15 39
-41 123 -82 45 -22 58 -34 56 -50 0 -12 0 -25 1 -31 4 -26 1 -115 -5 -124 -3
-6 -2 -11 2 -11 5 0 9 -15 10 -32 1 -28 0 -30 -6 -9 -3 14 -11 26 -18 28 -16
6 -21 -27 -18 -104 2 -37 1 -60 -3 -51 -9 21 -32 9 -36 -18 -4 -24 12 -46 28
-37 6 3 1 -4 -12 -16 -12 -12 -27 -19 -32 -16 -19 11 -24 -27 -6 -40 14 -10
14 -15 4 -21 -7 -5 -19 -9 -26 -10 -7 -2 -25 -14 -40 -29 -25 -25 -25 -28 -9
-40 16 -11 16 -13 2 -19 -9 -3 -14 -10 -11 -15 3 -5 -2 -8 -12 -7 -11 1 -17
-6 -17 -19 0 -14 -7 -20 -25 -20 -15 0 -24 -5 -23 -12 2 -7 -3 -13 -11 -13 -8
0 -18 -9 -21 -20 -3 -11 -13 -20 -21 -20 -8 0 -14 -7 -14 -15 0 -8 -7 -15 -15
-15 -14 0 -19 -12 -16 -32 0 -5 -3 -8 -8 -8 -5 0 -12 -10 -16 -22 l-8 -23 -4
23 c-5 25 -21 29 -29 7 -3 -8 -15 -17 -26 -21 -13 -4 -18 -12 -15 -24 4 -15 0
-16 -22 -11 -24 7 -64 -11 -110 -50 -7 -7 -27 -15 -45 -18 -17 -4 -31 -13 -31
-21 0 -9 -12 -14 -35 -14 -30 -1 -35 -4 -33 -23 2 -16 -2 -21 -12 -17 -9 4
-15 1 -15 -7 0 -10 -3 -10 -12 -1 -7 7 -25 12 -41 12 -23 0 -28 -4 -25 -18 5
-17 -3 -18 -83 -18 -48 1 -91 -2 -95 -6 -4 -4 -1 -15 7 -24 13 -16 12 -16 -6
-8 -20 10 -406 11 -435 2 -8 -3 -12 -3 -7 -1 4 3 7 11 7 19 0 8 -3 14 -7 15
-5 0 -17 2 -28 5 -11 2 -30 2 -43 -1 -18 -5 -22 -10 -16 -27 6 -20 5 -21 -10
-6 -9 9 -16 22 -16 28 0 8 -6 7 -22 -1 -19 -9 -21 -9 -10 2 6 7 12 19 12 26 0
16 -52 17 -68 1 -9 -9 -12 -9 -12 1 0 8 -8 10 -22 6 -13 -3 -18 -3 -12 2 6 4
11 16 11 26 0 20 -52 25 -60 5 -4 -8 -6 -7 -6 4 -2 30 -29 48 -56 38 -15 -6
-27 -6 -30 0 -4 6 -1 10 6 10 8 0 8 4 -1 15 -7 8 -20 15 -30 15 -9 0 -25 9
-35 20 -11 12 -22 17 -28 11 -5 -5 -17 -7 -27 -4 -14 4 -17 12 -13 39 3 19 0
41 -6 48 -6 7 -7 16 -3 20 4 4 7 44 8 89 0 76 -2 83 -25 102 -19 15 -41 20
-95 20 -62 1 -74 -2 -94 -23 -12 -13 -22 -29 -21 -35 1 -7 1 -25 0 -42 -1 -23
-4 -26 -11 -15 -14 22 -28 1 -30 -45 -3 -74 0 -106 10 -100 6 3 10 1 10 -4 0
-11 -13 -15 -36 -12 -7 1 -14 -13 -18 -32 -3 -18 -15 -40 -26 -50 -25 -21 -26
-41 -2 -33 10 4 5 -3 -10 -17 -16 -14 -28 -29 -28 -36 0 -6 -6 -11 -14 -11 -8
0 -17 -9 -21 -20 -3 -11 -11 -19 -18 -17 -6 1 -18 -11 -27 -28 -17 -33 -69
-89 -76 -82 -3 3 9 17 27 31 25 21 29 30 20 39 -10 9 -15 8 -24 -4 -7 -8 -20
-18 -31 -22 -10 -4 -16 -13 -13 -21 4 -9 -2 -13 -16 -11 -39 3 -56 -12 -52
-45 2 -17 -1 -30 -6 -30 -5 0 -9 9 -9 20 0 12 -7 20 -17 20 -28 0 -47 -16 -40
-34 5 -13 0 -14 -33 -10 -32 5 -40 3 -40 -10 0 -15 16 -20 50 -17 13 2 13 1 0
-8 -8 -5 -17 -8 -20 -6 -4 2 -21 7 -40 10 -26 5 -31 3 -27 -10 6 -13 4 -13
-16 -1 -12 7 -41 14 -64 15 -33 1 -44 -3 -52 -18 -8 -14 -8 -20 1 -23 7 -3 5
-7 -6 -11 -9 -4 -15 -3 -12 2 3 5 -7 9 -22 9 -247 3 -310 0 -332 -13 -6 -3
-10 -2 -10 3 0 6 -22 9 -49 8 -38 -1 -47 1 -40 11 16 18 -21 33 -80 31 -39 -2
-54 2 -64 16 -14 19 -63 24 -108 11 -23 -6 -23 -5 -5 9 24 19 18 26 -25 29
-29 2 -34 -1 -32 -18 1 -11 0 -14 -3 -7 -3 6 -12 12 -20 12 -8 0 -14 4 -14 10
0 5 6 7 14 4 21 -8 28 24 7 35 -12 7 -26 6 -44 -4 -15 -7 -29 -10 -32 -5 -3 4
3 11 13 15 15 6 15 8 -5 25 -13 10 -23 23 -23 29 0 7 -10 11 -22 10 -44 -4
-58 1 -52 16 4 8 1 15 -5 15 -15 0 -71 57 -71 72 0 6 -7 5 -17 -3 -15 -11 -14
-10 1 9 11 12 14 22 8 22 -7 0 -12 6 -12 14 0 8 -10 22 -22 30 -16 12 -21 24
-20 53 3 59 10 86 27 96 8 4 13 12 10 18 -4 5 2 12 12 16 30 12 135 124 129
139 -6 15 -36 20 -36 6 0 -11 -84 -102 -94 -102 -5 0 6 15 24 32 18 18 39 44
48 56 8 13 25 28 38 32 19 7 22 16 21 59 -1 39 -5 52 -18 56 -10 4 -30 20 -44
37 -34 40 -81 41 -119 3 -14 -14 -26 -30 -26 -35 0 -6 -4 -10 -10 -10 -14 0
-104 -90 -96 -97 3 -4 -13 -24 -36 -45 -38 -34 -47 -38 -82 -33 -39 4 -71 -9
-61 -26 3 -4 -3 -13 -14 -18 -14 -8 -20 -7 -24 3 -3 7 -16 12 -29 10 -12 -1
-27 -3 -32 -3 -4 -1 -6 -10 -3 -21 3 -11 1 -18 -4 -14 -5 3 -9 -1 -9 -9 0 -8
-8 -21 -17 -28 -15 -11 -16 -11 -6 1 10 11 9 16 -5 26 -30 23 -114 12 -99 -13
3 -4 -27 -8 -66 -7 -40 1 -81 -3 -92 -8 -19 -9 -19 -8 -1 6 32 26 9 38 -60 33
-53 -3 -68 -1 -86 15 -28 24 -64 20 -60 -7 2 -18 0 -17 -15 4 -10 13 -18 31
-18 40 0 9 -10 17 -24 19 -16 3 -21 0 -16 -8 5 -8 3 -11 -6 -8 -8 3 -14 11
-14 19 -1 20 -54 71 -67 63 -5 -3 -7 -15 -5 -26 4 -16 3 -17 -9 -7 -8 6 -14
18 -14 25 0 8 -5 14 -12 14 -6 0 -8 3 -5 7 4 3 -2 12 -13 20 -11 8 -20 21 -20
29 0 8 -4 13 -8 10 -5 -3 -19 6 -30 19 -12 14 -27 25 -33 25 -7 0 -9 9 -5 24
5 19 -1 32 -21 53 -16 15 -35 28 -43 28 -8 1 -24 7 -35 13 -19 12 -19 12 5 10
19 -2 25 2 25 17 0 12 -6 19 -14 17 -20 -4 -31 18 -20 39 12 24 -6 73 -25 66
-11 -4 -13 0 -10 16 9 49 6 107 -6 122 -11 13 -15 13 -22 3 -5 -9 -8 -5 -8 12
0 14 0 34 0 45 0 11 1 47 3 80 1 33 -1 71 -5 85 -8 23 -7 24 6 7 14 -18 15
-17 29 10 7 15 12 36 10 45 -6 25 20 59 36 49 7 -5 12 -11 12 -15 -3 -21 3
-24 40 -22 26 2 45 10 51 20 5 9 15 16 21 16 31 0 45 37 45 118 0 75 -1 81
-26 99 -16 12 -34 17 -45 14 -16 -6 -15 -10 12 -39 33 -33 37 -47 21 -57 -5
-3 -7 0 -5 8 3 7 -12 32 -34 55 -23 23 -34 43 -28 45 9 3 9 8 1 16 -18 19 -47
20 -68 2 -12 -10 -16 -11 -11 -2 6 10 1 12 -24 6 -25 -5 -37 -2 -62 19 -17 14
-26 26 -20 26 6 0 11 7 11 16 0 12 -7 15 -30 12 -17 -3 -30 -1 -30 4 0 5 -4 6
-10 3 -5 -3 -10 2 -10 11 0 23 -67 82 -102 89 -15 4 -28 11 -28 16 0 5 -16 19
-35 30 -19 12 -35 27 -35 34 0 7 -11 21 -25 31 -18 13 -23 24 -19 41 5 17 2
23 -10 23 -9 0 -16 8 -16 20 0 11 -6 20 -14 20 -8 0 -18 9 -21 20 -5 15 -11
18 -23 11 -12 -6 -23 -3 -37 12 -11 11 -15 17 -8 13 11 -6 27 9 28 29 1 10
-33 47 -50 54 -6 2 -16 6 -23 8 -9 4 -10 9 -1 19 17 20 7 36 -32 50 -19 7 -26
13 -16 13 13 1 17 7 15 24 -2 14 -9 21 -20 21 -10 -1 -15 2 -12 8 3 5 0 15 -6
23 -10 12 -10 15 -1 15 8 0 11 11 9 28 -2 20 -8 27 -24 26 -14 0 -20 4 -17 13
3 7 -2 13 -10 13 -9 0 -18 4 -21 9 -3 5 2 8 12 7 26 -2 30 64 4 71 -18 4 -19
12 -16 91 5 101 -2 152 -19 152 -9 0 -13 27 -13 98 0 53 -3 115 -7 137 -5 29
-4 34 3 18 24 -57 44 1 36 99 -3 36 -1 60 6 64 7 5 8 2 3 -7 -6 -11 -5 -11 4
-3 17 16 27 94 12 94 -18 0 9 38 31 44 16 4 18 12 15 54 -3 41 -1 49 10 45 19
-7 35 17 22 33 -13 16 0 45 20 42 11 -2 16 4 15 22 -1 22 47 79 68 80 8 0 4
27 -5 36 -12 13 -8 21 19 33 16 7 24 17 20 26 -3 9 0 12 10 8 9 -3 27 8 47 31
18 20 38 36 44 36 6 0 15 9 18 20 3 11 11 20 16 20 5 0 9 7 9 15 0 8 7 15 15
15 9 0 18 7 21 15 4 8 12 15 20 15 13 0 18 11 15 36 -1 14 37 54 52 54 6 0 1
-7 -11 -16 -21 -14 -22 -34 -2 -34 18 0 71 53 66 66 -4 11 3 12 30 8 30 -5 36
-2 41 15 4 15 13 21 35 21 21 0 31 6 35 18 4 15 13 19 49 17 49 -3 63 7 42 32
-12 15 -11 15 10 4 12 -7 22 -8 22 -2 0 6 11 6 28 2 31 -9 95 -7 112 4 6 4 9
12 7 19 -4 9 35 12 149 11 118 0 154 -3 154 -13 0 -27 59 -35 135 -18 17 3 24
3 18 0 -22 -10 -15 -44 8 -44 18 0 20 5 16 26 l-5 26 23 -23 c13 -14 18 -27
12 -30 -15 -10 1 -29 24 -29 16 0 19 5 14 20 -3 11 -2 20 2 20 17 0 32 -65 31
-130 -2 -60 0 -67 27 -95 19 -19 38 -28 53 -26 14 1 22 -3 22 -12 0 -18 27
-29 51 -22 21 7 26 24 7 26 -7 1 -2 4 12 8 14 4 30 4 37 -1 14 -11 55 31 64
65 5 18 3 97 -3 155 -1 7 -9 10 -18 7 -15 -5 -17 0 -13 27 6 43 6 404 0 446
-3 22 0 32 9 32 17 0 31 29 28 55 -3 22 -4 53 -3 86 0 16 3 18 13 10 19 -16
25 -4 20 36 -4 29 -2 34 11 29 17 -6 40 38 29 55 -3 5 -7 24 -10 41 -2 23 0
28 7 21 14 -14 39 -6 39 12 0 6 9 20 20 30 11 10 20 24 20 32 0 7 7 16 15 19
11 4 14 18 11 52 -2 26 -2 41 1 35 7 -18 21 -16 45 7 23 21 58 71 58 82 0 4
-7 4 -17 1 -11 -4 -14 -3 -9 5 4 7 14 12 22 12 8 0 12 5 9 10 -3 6 3 10 14 10
26 0 27 8 4 27 -16 13 -16 14 10 10 22 -3 36 4 73 39 25 24 43 48 40 53 -3 5
4 11 15 14 14 4 20 11 16 20 -4 11 0 13 14 10 11 -3 19 0 19 6 0 7 5 9 12 5 6
-4 16 0 22 8 6 8 17 17 25 19 20 7 23 39 3 39 -8 0 -12 3 -9 6 4 4 20 1 36 -6
26 -10 33 -9 61 11 20 16 30 30 27 41 -3 10 -1 18 4 18 5 0 9 7 9 15 0 8 4 15
10 15 5 0 7 -6 4 -14 -7 -17 26 -30 40 -16 7 7 7 16 -2 31 -12 19 -12 19 17 5
44 -23 65 -11 62 34 0 10 1 11 5 3 7 -16 29 -17 55 -2 15 8 18 14 9 24 -8 10
-7 13 7 11 10 0 17 5 15 12 -3 17 5 15 27 -7 26 -26 64 -17 55 13 -4 11 -3 18
1 14 4 -4 16 -3 26 3 11 5 19 6 19 1 0 -15 32 -19 67 -10 23 6 31 13 27 23 -6
15 6 19 56 17 87 -4 212 -2 220 3 16 10 1 25 -26 25 -13 0 -24 5 -24 10 0 6
11 8 28 3 15 -4 41 -8 58 -7z m94 10 c0 -2 -7 -7 -16 -10 -8 -3 -12 -2 -9 4 6
10 25 14 25 6z m177 -13 c3 -9 -4 -10 -26 -3 -16 4 -32 6 -34 3 -3 -2 -7 0
-10 4 -3 5 11 9 30 8 20 0 38 -5 40 -12z m608 -3 c3 -6 -1 -7 -9 -4 -18 7 -21
14 -7 14 6 0 13 -4 16 -10z m45 -20 c13 -11 19 -20 14 -20 -12 1 -44 25 -44
34 0 10 5 7 30 -14z m-1840 -14 c0 -2 -16 -13 -35 -25 -33 -19 -34 -19 -23 -1
7 11 21 21 33 23 11 2 21 5 23 6 1 0 2 -1 2 -3z m1909 -40 c-3 -3 -11 5 -18
17 -13 21 -12 21 5 5 10 -10 16 -20 13 -22z m-468 6 c-7 -2 -18 1 -23 6 -8 8
-4 9 13 5 13 -4 18 -8 10 -11z m-1601 -77 c-13 -14 -27 -25 -32 -25 -9 0 42
49 51 50 3 0 -6 -11 -19 -25z m2240 -60 c14 -19 14 -19 -2 -6 -10 7 -18 18
-18 24 0 6 1 8 3 6 1 -2 9 -13 17 -24z m-321 -29 c-3 -3 -11 5 -18 17 -13 21
-12 21 5 5 10 -10 16 -20 13 -22z m-1649 9 c0 -2 -10 -9 -22 -15 -22 -11 -22
-10 -4 4 21 17 26 19 26 11z m2004 -11 c3 -8 2 -12 -4 -9 -6 3 -10 10 -10 16
0 14 7 11 14 -7z m44 -34 c7 -11 11 -20 9 -20 -2 0 -12 9 -22 20 -10 11 -14
20 -9 20 5 0 15 -9 22 -20z m-2148 -15 c0 -8 -10 -19 -22 -25 -21 -10 -21 -10
-5 3 9 8 17 19 17 26 0 6 2 11 5 11 3 0 5 -7 5 -15z m1895 -46 c11 -17 -1 -21
-15 -4 -8 9 -8 15 -2 15 6 0 14 -5 17 -11z m40 -48 c-6 -5 -25 10 -25 20 0 5
6 4 14 -3 8 -7 12 -15 11 -17z m345 -33 c0 -13 -5 -9 -31 19 l-24 26 27 -19
c15 -10 28 -22 28 -26z m-2430 6 c0 -8 -19 -13 -24 -6 -3 5 1 9 9 9 8 0 15 -2
15 -3z m-30 -33 c0 -5 -7 -12 -16 -15 -14 -5 -15 -4 -4 9 14 17 20 19 20 6z
m-304 -27 c-23 -16 -40 -19 -31 -4 3 6 13 10 21 10 8 0 14 5 14 12 0 6 3 8 7
4 5 -4 -1 -14 -11 -22z m2542 -34 c7 -11 11 -20 9 -20 -2 0 -12 9 -22 20 -10
11 -14 20 -9 20 5 0 15 -9 22 -20z m295 -20 c3 -11 1 -18 -4 -14 -5 3 -9 12
-9 20 0 8 -4 14 -10 14 -5 0 -10 5 -10 11 0 18 27 -8 33 -31z m612 20 c-3 -5
-12 -10 -18 -10 -7 0 -6 4 3 10 19 12 23 12 15 0z m58 3 c-7 -2 -21 -2 -30 0
-10 3 -4 5 12 5 17 0 24 -2 18 -5z m140 0 c-7 -2 -21 -2 -30 0 -10 3 -4 5 12
5 17 0 24 -2 18 -5z m50 0 c-7 -2 -19 -2 -25 0 -7 3 -2 5 12 5 14 0 19 -2 13
-5z m-1107 -44 c19 -22 19 -22 -3 -10 -13 6 -23 16 -23 21 0 15 5 12 26 -11z
m657 4 c-7 -2 -19 -2 -25 0 -7 3 -2 5 12 5 14 0 19 -2 13 -5z m-623 -37 c0 -3
-4 -8 -10 -11 -5 -3 -10 -1 -10 4 0 6 5 11 10 11 6 0 10 -2 10 -4z m-2460 -26
c-6 -11 -13 -20 -16 -20 -2 0 0 9 6 20 6 11 13 20 16 20 2 0 0 -9 -6 -20z
m2765 -50 c4 -7 13 -7 26 0 12 7 19 7 19 1 0 -19 -42 -24 -58 -7 -10 10 -12
16 -5 16 7 0 15 -5 18 -10z m-255 -15 c19 -22 8 -25 -12 -3 -10 10 -14 18 -9
18 5 0 14 -7 21 -15z m784 -26 c3 -3 -4 -5 -14 -6 -11 -1 -20 2 -20 7 0 8 25
8 34 -1z m161 -7 c-3 -3 -11 0 -18 7 -9 10 -8 11 6 5 10 -3 15 -9 12 -12z
m147 0 c6 -6 -3 -8 -24 -7 -18 2 -48 3 -65 4 -18 0 -33 4 -33 9 0 11 110 6
122 -6z m-3902 4 c0 -3 -4 -8 -10 -11 -5 -3 -10 -1 -10 4 0 6 5 11 10 11 6 0
10 -2 10 -4z m-33 -28 c-3 -8 -6 -5 -6 6 -1 11 2 17 5 13 3 -3 4 -12 1 -19z
m230 -40 c-3 -8 -6 -5 -6 6 -1 11 2 17 5 13 3 -3 4 -12 1 -19z m4073 -70 c0
-6 -6 -5 -15 2 -8 7 -15 14 -15 16 0 2 7 1 15 -2 8 -4 15 -11 15 -16z m-4340
-8 c0 -11 -4 -20 -9 -20 -5 0 -7 9 -4 20 3 11 7 20 9 20 2 0 4 -9 4 -20z
m4751 -17 c13 -16 12 -17 -3 -4 -10 7 -18 15 -18 17 0 8 8 3 21 -13z m-310
-36 l11 -22 -21 22 c-22 23 -28 39 -11 28 5 -3 15 -16 21 -28z m354 -7 c10
-11 16 -20 13 -20 -3 0 -13 9 -23 20 -10 11 -16 20 -13 20 3 0 13 -9 23 -20z
m-285 -40 c0 -5 -4 -10 -10 -10 -5 0 -10 5 -10 10 0 6 5 10 10 10 6 0 10 -4
10 -10z m351 -27 c13 -16 12 -17 -3 -4 -10 7 -18 15 -18 17 0 8 8 3 21 -13z
m-261 -39 c0 -2 -9 0 -20 6 -11 6 -20 13 -20 16 0 2 9 0 20 -6 11 -6 20 -13
20 -16z m-4665 -44 c3 -5 1 -10 -4 -10 -6 0 -11 5 -11 10 0 6 2 10 4 10 3 0 8
-4 11 -10z m4710 -10 c10 -11 16 -20 13 -20 -3 0 -13 9 -23 20 -10 11 -16 20
-13 20 3 0 13 -9 23 -20z m292 -15 c17 -19 28 -35 23 -35 -4 0 -20 16 -34 35
-15 19 -25 35 -23 35 2 0 17 -16 34 -35z m-4804 -5 c-6 -23 -22 -37 -19 -18 2
14 15 38 21 38 2 0 1 -9 -2 -20z m2977 -25 c11 -13 10 -14 -4 -9 -9 3 -16 10
-16 15 0 13 6 11 20 -6z m1580 5 c0 -5 -4 -10 -10 -10 -5 0 -10 5 -10 10 0 6
5 10 10 10 6 0 10 -4 10 -10z m-1470 -10 c0 -5 -8 -10 -17 -10 -15 0 -16 2 -3
10 19 12 20 12 20 0z m1764 -26 c3 -8 2 -12 -4 -9 -6 3 -10 10 -10 16 0 14 7
11 14 -7z m-5087 -36 c-3 -8 -6 -5 -6 6 -1 11 2 17 5 13 3 -3 4 -12 1 -19z m0
-120 c-3 -7 -5 -2 -5 12 0 14 2 19 5 13 2 -7 2 -19 0 -25z m-507 -42 c0 -2 -7
-7 -16 -10 -8 -3 -12 -2 -9 4 6 10 25 14 25 6z m351 -44 c-7 -2 -18 1 -23 6
-8 8 -4 9 13 5 13 -4 18 -8 10 -11z m-571 3 c0 -7 -30 -13 -34 -7 -3 4 4 9 15
9 10 1 19 0 19 -2z m-410 -169 c0 -3 -4 -8 -10 -11 -5 -3 -10 -1 -10 4 0 6 5
11 10 11 6 0 10 -2 10 -4z m524 -24 c3 -5 -1 -9 -9 -9 -8 0 -12 4 -9 9 3 4 7
8 9 8 2 0 6 -4 9 -8z m366 4 c0 -2 -7 -7 -16 -10 -8 -3 -12 -2 -9 4 6 10 25
14 25 6z m5536 -61 c-3 -23 -12 -26 -13 -5 -1 11 2 20 7 20 4 0 7 -7 6 -15z
m-5059 -77 c-3 -8 -6 -5 -6 6 -1 11 2 17 5 13 3 -3 4 -12 1 -19z m-1638 -51
c-2 -1 -13 -9 -24 -17 -19 -14 -19 -14 -6 3 7 9 18 17 24 17 6 0 8 -1 6 -3z
m256 -59 c-11 -6 -22 -14 -25 -17 -3 -3 -13 -12 -23 -20 -15 -12 -17 -12 -12
0 6 16 54 48 70 48 6 0 1 -5 -10 -11z m6472 -20 c-3 -8 -6 -5 -6 6 -1 11 2 17
5 13 3 -3 4 -12 1 -19z m-5272 -8 c3 -5 1 -10 -4 -10 -6 0 -11 5 -11 10 0 6 2
10 4 10 3 0 8 -4 11 -10z m5081 -58 c3 -23 2 -42 -3 -42 -5 0 -10 21 -10 46
-1 54 5 53 13 -4z m-6646 -6 c0 -2 -7 -7 -16 -10 -8 -3 -12 -2 -9 4 6 10 25
14 25 6z m265 -6 c-3 -5 -11 -10 -16 -10 -6 0 -7 5 -4 10 3 6 11 10 16 10 6 0
7 -4 4 -10z m-35 -34 c0 -8 -7 -16 -15 -20 -12 -4 -13 -2 -2 14 14 24 17 25
17 6z m6415 -47 c-3 -12 -7 -24 -10 -27 -3 -3 -3 5 -1 19 6 30 5 29 10 29 3 0
3 -10 1 -21z m0 -59 c3 -5 1 -10 -4 -10 -6 0 -11 5 -11 10 0 6 2 10 4 10 3 0
8 -4 11 -10z m-6772 -35 c-3 -9 -8 -14 -10 -11 -3 3 -2 9 2 15 9 16 15 13 8
-4z m238 -18 c-13 -12 -20 -15 -15 -7 12 22 28 39 33 34 3 -3 -6 -15 -18 -27z
m6534 -32 c0 -29 -3 -51 -7 -49 -4 3 -6 29 -5 59 3 68 12 61 12 -10z m200 -96
c1 -11 -1 -22 -5 -24 -3 -2 -7 10 -8 28 -2 17 1 28 5 24 4 -4 7 -17 8 -28z
m-6812 -4 c-3 -9 -8 -14 -10 -11 -3 3 -2 9 2 15 9 16 15 13 8 -4z m-73 -250
c0 -5 -5 -3 -10 5 -5 8 -10 20 -10 25 0 6 5 3 10 -5 5 -8 10 -19 10 -25z
m6620 31 c0 -2 -8 -10 -17 -17 -16 -13 -17 -12 -4 4 13 16 21 21 21 13z m-43
-78 c-3 -8 -6 -5 -6 6 -1 11 2 17 5 13 3 -3 4 -12 1 -19z m-6811 -48 c-1 -16
-5 -33 -9 -36 -7 -7 -7 45 0 59 8 14 11 6 9 -23z m7184 -40 c6 -11 8 -20 6
-20 -3 0 -10 9 -16 20 -6 11 -8 20 -6 20 3 0 10 -9 16 -20z m-214 -142 c4 -7
4 -10 -1 -6 -4 4 -13 3 -20 -2 -8 -7 -12 -5 -12 5 0 18 23 20 33 3z m454 -30
c0 -12 -6 -9 -26 13 -19 22 -19 22 4 8 12 -8 22 -17 22 -21z m-497 -10 c-16
-8 -23 -20 -23 -38 0 -23 -5 -28 -30 -32 -16 -3 -30 -1 -30 4 0 4 11 8 25 8
19 0 25 5 25 23 0 27 17 47 40 46 10 0 7 -4 -7 -11z m560 -57 c-2 -3 -16 8
-31 24 l-27 28 31 -24 c17 -13 30 -26 27 -28z m-763 19 c0 -5 -2 -10 -4 -10
-3 0 -8 5 -11 10 -3 6 -1 10 4 10 6 0 11 -4 11 -10z m60 -30 c0 -5 -9 -6 -20
-3 -11 3 -20 9 -20 13 0 5 9 6 20 3 11 -3 20 -9 20 -13z m50 0 c0 -4 -7 -7
-15 -6 -23 3 -26 12 -5 13 11 1 20 -2 20 -7z m364 -6 c5 -14 4 -15 -9 -4 -17
14 -19 20 -6 20 5 0 12 -7 15 -16z m31 -34 c3 -5 2 -10 -4 -10 -5 0 -13 5 -16
10 -3 6 -2 10 4 10 5 0 13 -4 16 -10z m339 -56 c5 -14 4 -15 -9 -4 -17 14 -19
20 -6 20 5 0 12 -7 15 -16z m-7566 -88 c1 -19 -1 -37 -5 -39 -7 -4 -10 40 -5
66 4 16 8 5 10 -27z m202 -31 c0 -17 -2 -17 -10 -5 -5 8 -10 24 -10 35 0 17 2
17 10 5 5 -8 10 -24 10 -35z m7314 -291 c3 -8 2 -12 -4 -9 -6 3 -10 10 -10 16
0 14 7 11 14 -7z m200 -23 c3 -5 -1 -11 -9 -14 -9 -4 -12 -1 -8 9 6 16 10 17
17 5z m-201 -61 c-3 -12 -8 -19 -11 -16 -5 6 5 36 12 36 2 0 2 -9 -1 -20z
m-7119 -107 c8 -19 2 -16 -25 13 -23 25 -23 26 -2 13 13 -7 25 -19 27 -26z
m-194 -88 c0 -12 -20 6 -31 28 l-11 22 21 -22 c11 -12 21 -25 21 -28z m300
-62 c0 -10 -31 20 -42 41 -8 15 -3 13 16 -7 14 -15 26 -31 26 -34z m-264 -1
c-4 -3 -14 2 -24 12 -16 18 -16 18 6 6 13 -6 21 -14 18 -18z m39 -50 c-3 -3
-11 0 -18 7 -9 10 -8 11 6 5 10 -3 15 -9 12 -12z m130 -142 c-3 -5 -12 -10
-18 -10 -7 0 -6 4 3 10 19 12 23 12 15 0z m303 -7 c10 -10 27 -23 38 -29 10
-7 17 -14 14 -17 -3 -3 -23 10 -45 28 -22 19 -37 34 -32 35 4 0 15 -8 25 -17z
m-233 -73 c12 -19 -12 -10 -31 11 -19 22 -19 22 3 10 12 -6 25 -16 28 -21z
m30 -30 c3 -6 -1 -7 -9 -4 -18 7 -21 14 -7 14 6 0 13 -4 16 -10z m30 -30 c3
-5 1 -10 -4 -10 -6 0 -11 5 -11 10 0 6 2 10 4 10 3 0 8 -4 11 -10z m6836 -13
c-10 -9 -11 -8 -5 6 3 10 9 15 12 12 3 -3 0 -11 -7 -18z m-6796 -35 c-3 -3
-11 0 -18 7 -9 10 -8 11 6 5 10 -3 15 -9 12 -12z m7025 -27 c0 -2 -10 -9 -22
-15 -22 -11 -22 -10 -4 4 21 17 26 19 26 11z m-292 -35 c-7 -10 -14 -17 -17
-15 -4 4 18 35 25 35 2 0 -1 -9 -8 -20z m-35 -35 c-3 -9 -8 -14 -10 -11 -3 3
-2 9 2 15 9 16 15 13 8 -4z m250 -29 c-10 -13 -20 -22 -22 -20 -4 4 29 44 36
44 2 0 -4 -11 -14 -24z m-6435 -42 c-17 -24 -33 -44 -36 -44 -2 0 3 10 12 23
9 12 22 34 28 49 7 15 16 24 20 22 5 -3 -6 -25 -24 -50z m-388 -14 c0 -5 -2
-10 -4 -10 -3 0 -8 5 -11 10 -3 6 -1 10 4 10 6 0 11 -4 11 -10z m0 -50 c0 -5
-5 -10 -11 -10 -5 0 -7 5 -4 10 3 6 8 10 11 10 2 0 4 -4 4 -10z m6615 -108
c-17 -15 -32 -26 -35 -24 -5 4 50 52 60 52 3 0 -9 -13 -25 -28z m-1131 -68 c3
-8 2 -12 -4 -9 -6 3 -10 10 -10 16 0 14 7 11 14 -7z m76 -39 c7 -9 8 -15 2
-15 -5 0 -12 7 -16 15 -3 8 -4 15 -2 15 2 0 9 -7 16 -15z m94 -67 c-3 -5 -12
-2 -20 6 -20 21 -17 28 5 14 11 -7 17 -16 15 -20z m529 -5 c3 -5 -11 -9 -31
-10 -32 -1 -34 0 -12 7 34 11 38 11 43 3z m-278 -13 c3 -5 1 -10 -4 -10 -6 0
-11 5 -11 10 0 6 2 10 4 10 3 0 8 -4 11 -10z m-53 -27 c-3 -16 -7 -22 -10 -15
-4 13 4 42 11 42 2 0 2 -12 -1 -27z m-5654 -98 c-3 -3 -9 2 -12 12 -6 14 -5
15 5 6 7 -7 10 -15 7 -18z m42 -110 c0 -5 -5 -3 -10 5 -5 8 -10 20 -10 25 0 6
5 3 10 -5 5 -8 10 -19 10 -25z m-205 -5 c3 -5 2 -10 -4 -10 -5 0 -13 5 -16 10
-3 6 -2 10 4 10 5 0 13 -4 16 -10z m5776 -47 c-12 -20 -14 -14 -5 12 4 9 9 14
11 11 3 -2 0 -13 -6 -23z m-5471 -107 c0 -3 -4 -8 -10 -11 -5 -3 -10 -1 -10 4
0 6 5 11 10 11 6 0 10 -2 10 -4z m1280 -6 c0 -5 -2 -10 -4 -10 -3 0 -8 5 -11
10 -3 6 -1 10 4 10 6 0 11 -4 11 -10z m87 -6 c0 -7 -6 -10 -14 -7 -7 3 -13 8
-13 12 0 4 6 8 13 8 8 0 14 -6 14 -13z m-1607 -8 c0 -7 7 -19 15 -26 8 -7 15
-17 15 -22 0 -13 -24 12 -39 40 -7 14 -8 22 -1 22 5 0 10 -6 10 -14z m1645
-46 l20 -25 -22 19 c-13 11 -23 24 -23 29 0 6 1 8 3 6 1 -2 11 -15 22 -29z
m3990 -90 c-10 -11 -23 -20 -28 -20 -6 0 1 10 14 23 29 28 40 25 14 -3z m-248
5 c0 -8 -4 -15 -9 -15 -10 0 -11 14 -1 23 9 10 10 9 10 -8z m-5296 -12 c13
-16 12 -17 -3 -4 -10 7 -18 15 -18 17 0 8 8 3 21 -13z m3250 -42 c-12 -12 -21
-18 -21 -14 0 10 33 44 37 39 3 -2 -5 -14 -16 -25z m-2897 3 c3 -8 2 -12 -4
-9 -6 3 -10 10 -10 16 0 14 7 11 14 -7z m3054 -2 c2 -7 -1 -12 -8 -12 -6 0 -9
4 -6 9 4 5 1 12 -4 14 -6 3 -5 4 2 3 6 -1 14 -8 16 -14z m2114 -14 c-7 -7 -12
-8 -12 -2 0 14 12 26 19 19 2 -3 -1 -11 -7 -17z m-5401 -65 c13 -16 12 -17 -3
-4 -10 7 -18 15 -18 17 0 8 8 3 21 -13z m1310 -16 c-10 -9 -11 -8 -5 6 3 10 9
15 12 12 3 -3 0 -11 -7 -18z m1784 13 c3 -5 1 -10 -4 -10 -6 0 -11 5 -11 10 0
6 2 10 4 10 3 0 8 -4 11 -10z m1990 0 c-3 -5 -11 -10 -16 -10 -6 0 -7 5 -4 10
3 6 11 10 16 10 6 0 7 -4 4 -10z m262 -16 c-3 -3 -12 -4 -19 -1 -8 3 -5 6 6 6
11 1 17 -2 13 -5z m-4075 -34 c-30 -29 -40 -25 -12 5 13 14 26 23 28 20 3 -3
-4 -14 -16 -25z m1828 10 c0 -11 -2 -20 -4 -20 -2 0 -6 9 -9 20 -3 11 -1 20 4
20 5 0 9 -9 9 -20z m1960 17 c0 -2 -10 -12 -22 -23 l-23 -19 19 23 c18 21 26
27 26 19z m-4517 -14 c-7 -2 -21 -2 -30 0 -10 3 -4 5 12 5 17 0 24 -2 18 -5z
m240 0 c-7 -2 -19 -2 -25 0 -7 3 -2 5 12 5 14 0 19 -2 13 -5z m-718 -21 c-3
-3 -11 0 -18 7 -9 10 -8 11 6 5 10 -3 15 -9 12 -12z m5228 -11 c-3 -11 -11
-22 -19 -25 -11 -4 -11 0 2 19 20 30 24 31 17 6z m-2206 -33 c-3 -7 -5 -2 -5
12 0 14 2 19 5 13 2 -7 2 -19 0 -25z m1918 22 c-3 -5 -11 -10 -16 -10 -6 0 -7
5 -4 10 3 6 11 10 16 10 6 0 7 -4 4 -10z m-4868 -16 c-3 -3 -12 -4 -19 -1 -8
3 -5 6 6 6 11 1 17 -2 13 -5z m4755 -66 c-7 -7 -12 -8 -12 -2 0 14 12 26 19
19 2 -3 -1 -11 -7 -17z m-4522 -54 c0 -2 -9 0 -20 6 -11 6 -20 13 -20 16 0 2
9 0 20 -6 11 -6 20 -13 20 -16z m685 16 c3 -6 -1 -7 -9 -4 -18 7 -21 14 -7 14
6 0 13 -4 16 -10z m2335 -16 c0 -2 -9 0 -20 6 -11 6 -20 13 -20 16 0 2 9 0 20
-6 11 -6 20 -13 20 -16z m-356 -6 c-10 -13 -20 -25 -21 -27 -2 -2 -3 1 -3 7 0
11 27 42 37 42 3 0 -2 -10 -13 -22z m1756 0 c-11 -12 -30 -23 -42 -24 -13 -2
-17 0 -11 2 7 3 16 6 20 6 5 0 14 9 21 19 7 11 18 19 23 19 5 0 1 -10 -11 -22z
m-4255 -8 c8 -13 -5 -13 -25 0 -13 8 -13 10 2 10 9 0 20 -4 23 -10z m760 -10
c3 -5 1 -10 -4 -10 -6 0 -11 5 -11 10 0 6 2 10 4 10 3 0 8 -4 11 -10z m2150
-11 c5 -5 -5 -4 -23 2 -17 6 -32 13 -32 16 0 7 43 -8 55 -18z m1265 -9 c-6
-11 -13 -20 -16 -20 -2 0 0 9 6 20 6 11 13 20 16 20 2 0 0 -9 -6 -20z m-3620
-15 c0 -8 -2 -15 -4 -15 -2 0 -6 7 -10 15 -3 8 -1 15 4 15 6 0 10 -7 10 -15z
m3580 1 c0 -2 -7 -7 -16 -10 -8 -3 -12 -2 -9 4 6 10 25 14 25 6z m-1100 -36
c13 -8 13 -10 -2 -10 -9 0 -20 5 -23 10 -8 13 5 13 25 0z m1473 -10 c-10 -11
-19 -20 -21 -20 -1 0 2 9 8 20 6 11 15 20 20 20 6 0 2 -9 -7 -20z m-3910 -60
c3 -11 1 -18 -4 -14 -5 3 -9 12 -9 20 0 20 7 17 13 -6z m3262 0 c4 -6 -7 -10
-27 -9 -31 1 -32 1 -8 9 14 4 26 8 27 9 1 1 5 -3 8 -9z m-1205 -4 c0 -2 -7 -7
-16 -10 -8 -3 -12 -2 -9 4 6 10 25 14 25 6z m600 0 c0 -3 -4 -8 -10 -11 -5 -3
-10 -1 -10 4 0 6 5 11 10 11 6 0 10 -2 10 -4z m-2617 -36 c9 -11 13 -20 7 -20
-5 0 -14 9 -20 20 -6 11 -9 20 -8 20 2 0 11 -9 21 -20z m3707 10 c0 -5 -2 -10
-4 -10 -3 0 -8 5 -11 10 -3 6 -1 10 4 10 6 0 11 -4 11 -10z m-3390 -21 c0 -6
-4 -7 -10 -4 -5 3 -10 11 -10 16 0 6 5 7 10 4 6 -3 10 -11 10 -16z m1657 6 c0
-8 -4 -15 -9 -15 -10 0 -11 14 -1 23 9 10 10 9 10 -8z m1703 -15 c0 -5 -7 -10
-16 -10 -8 0 -12 5 -9 10 3 6 10 10 16 10 5 0 9 -4 9 -10z m-3134 -110 c9 0
13 -4 10 -9 -10 -16 -45 -1 -38 17 4 10 7 12 10 4 2 -7 10 -12 18 -12z m-381
-30 c3 -6 -1 -7 -9 -4 -18 7 -21 14 -7 14 6 0 13 -4 16 -10z m511 -17 c-6 -6
-36 9 -36 18 0 5 9 4 20 -3 10 -7 18 -14 16 -15z m1115 -6 l-24 -22 19 27 c10
14 21 24 23 22 3 -3 -6 -15 -18 -27z m875 12 c3 -5 -6 -5 -19 0 -14 6 -28 7
-33 3 -4 -4 -4 -2 -1 5 7 12 44 7 53 -8z m-1326 1 c0 -5 -8 -10 -17 -10 -15 0
-16 2 -3 10 19 12 20 12 20 0z m1513 -20 c-7 -8 -73 -8 -73 0 0 4 18 6 39 6
22 -1 37 -3 34 -6z m-1743 -20 c-8 -5 -26 -9 -40 -9 -23 1 -23 2 5 9 43 11 52
11 35 0z m375 -128 c-3 -3 -11 0 -18 7 -9 10 -8 11 6 5 10 -3 15 -9 12 -12z
m-685 -62 c0 -5 -10 -10 -22 -9 -22 0 -22 1 -3 9 11 5 21 9 23 9 1 1 2 -3 2
-9z m294 2 c2 -4 -5 -9 -17 -9 -17 -2 -19 0 -7 7 18 12 18 12 24 2z"/>
<path d="M1272 4111 c2 -9 14 -17 26 -19 19 -3 23 1 20 15 -2 11 -13 18 -26
19 -16 1 -22 -4 -20 -15z"/>
<path d="M2483 2950 c-9 -10 -20 -17 -25 -14 -4 3 -8 -4 -8 -15 0 -28 19 -26
53 4 32 30 32 31 12 39 -9 3 -23 -3 -32 -14z"/>
<path d="M1896 2331 c-4 -5 -4 -15 -1 -23 4 -11 -3 -13 -30 -10 -30 4 -35 1
-35 -16 0 -11 -7 -23 -16 -26 -15 -6 -15 -4 -3 10 11 14 11 18 -5 29 -17 13
-54 8 -55 -8 -1 -18 -26 -35 -38 -25 -7 6 -20 8 -28 4 -12 -4 -14 -10 -5 -25
9 -19 7 -20 -25 -16 -26 4 -37 1 -41 -10 -4 -8 -10 -15 -15 -15 -16 0 -99 -95
-94 -107 7 -21 -6 -43 -26 -43 -12 0 -19 -7 -19 -19 0 -10 -7 -24 -15 -31 -17
-14 -21 -65 -4 -55 6 4 5 -2 -2 -13 -7 -12 -17 -20 -22 -19 -18 4 -24 -47 -22
-175 3 -135 8 -152 52 -169 13 -5 23 -14 22 -21 0 -10 -2 -10 -6 0 -10 25 -33
12 -33 -18 0 -33 16 -39 36 -12 11 14 12 11 3 -21 -12 -44 -6 -67 16 -67 8 0
15 -4 15 -9 0 -5 9 -11 20 -14 11 -3 20 -11 20 -19 0 -10 -3 -9 -10 2 -7 12
-12 12 -22 2 -9 -9 -10 -15 -2 -20 6 -4 16 -17 23 -30 7 -12 16 -20 21 -17 5
3 15 -4 23 -15 8 -11 26 -21 41 -22 17 -2 25 -7 22 -15 -3 -7 -2 -13 3 -13 5
0 21 -10 37 -22 34 -27 50 -30 87 -18 17 5 27 5 27 -1 0 -5 3 -8 8 -6 4 1 8
-2 9 -7 3 -19 32 -26 121 -26 82 0 92 2 92 18 0 15 7 18 43 17 56 -2 101 13
87 30 -14 16 0 28 17 13 10 -8 17 -8 24 -1 8 8 7 13 0 17 -19 12 -12 21 14 21
14 0 25 -3 25 -7 0 -17 21 -6 47 23 66 74 110 119 117 119 4 0 17 12 30 27 26
30 23 57 -5 50 -11 -3 -17 -1 -13 4 3 5 12 9 20 9 8 0 14 4 14 9 0 5 7 8 16 7
22 -1 28 39 9 57 -12 13 -12 16 -1 20 9 4 13 15 10 29 -2 13 -2 17 2 11 9 -21
31 -15 36 10 2 12 3 65 3 117 0 91 -1 95 -22 94 -12 0 -20 3 -17 7 2 4 -2 14
-9 21 -12 10 -12 15 -1 23 7 6 11 21 7 37 -4 21 -13 28 -41 34 -34 6 -35 8
-13 13 32 9 37 27 12 41 -12 6 -21 17 -21 25 0 8 -8 15 -19 15 -11 0 -21 9
-25 23 -6 21 -7 21 -20 4 -12 -16 -13 -15 -13 9 0 30 -23 49 -36 31 -6 -8 -7
-6 -4 5 6 19 -15 42 -28 30 -5 -4 -5 -1 -1 6 9 15 -39 72 -61 72 -8 0 -18 -10
-23 -22 -7 -19 -9 -19 -9 -5 -1 12 -5 16 -13 11 -10 -6 -10 -5 0 8 10 12 10
18 -2 27 -19 16 -72 10 -68 -7 1 -8 -2 -11 -8 -7 -6 3 -8 10 -5 15 3 6 -14 8
-40 6 -37 -3 -42 -1 -29 9 11 7 13 14 7 18 -18 11 -112 17 -117 8z m331 -121
c14 -11 22 -20 18 -20 -4 0 -18 9 -32 20 -14 11 -22 20 -18 20 4 0 18 -9 32
-20z m-578 -13 c-2 -1 -13 -9 -24 -17 -19 -14 -19 -14 -6 3 7 9 18 17 24 17 6
0 8 -1 6 -3z m-55 -51 c-3 -8 -22 -27 -42 -42 l-37 -27 40 41 c46 47 46 47 39
28z m389 -41 c-3 -9 -8 -14 -10 -11 -3 3 -2 9 2 15 9 16 15 13 8 -4z m-73 -10
c-10 -12 -10 -19 -2 -27 7 -7 12 -9 12 -5 0 3 11 2 24 -3 17 -6 29 -5 42 5 12
8 25 10 35 4 9 -4 20 -5 25 -1 5 4 2 -1 -5 -10 -18 -24 -5 -39 29 -33 24 4 27
2 23 -14 -4 -14 1 -20 19 -23 12 -2 22 -9 21 -15 -2 -7 6 -17 17 -23 11 -6 18
-15 15 -19 -3 -5 6 -12 20 -15 21 -5 24 -10 18 -36 -5 -25 -2 -30 14 -30 27 0
66 -44 60 -67 -4 -15 -5 -14 -6 5 -1 14 -7 22 -18 22 -15 0 -18 -8 -17 -43 0
-54 10 -73 30 -56 7 6 11 16 7 22 -4 6 -1 7 6 3 9 -6 9 -13 -3 -29 -8 -12 -19
-21 -25 -19 -6 1 -11 -2 -11 -7 0 -5 -9 -11 -20 -14 -12 -3 -20 -14 -20 -27 0
-11 5 -18 10 -15 6 3 10 1 10 -5 0 -6 -11 -16 -25 -22 -14 -6 -25 -17 -25 -25
0 -7 -3 -12 -7 -12 -21 3 -33 -2 -33 -16 0 -8 5 -15 10 -15 6 0 10 -5 10 -11
0 -8 -5 -7 -16 2 -13 10 -17 10 -25 -2 -5 -8 -9 -17 -9 -21 0 -5 -7 -8 -16 -8
-8 0 -13 -4 -9 -10 3 -5 -7 -3 -22 6 -26 13 -29 13 -48 -8 -17 -20 -30 -23
-100 -24 -44 -1 -75 1 -68 3 25 9 0 33 -34 33 -21 0 -32 4 -28 11 7 10 -44 65
-57 61 -5 -1 -8 8 -8 20 0 29 -15 53 -32 53 -8 0 -11 9 -9 20 3 11 5 59 5 108
0 64 4 87 13 87 7 0 16 12 19 28 7 29 123 154 136 146 4 -3 17 0 28 6 18 10
19 14 8 28 -10 12 -10 14 0 8 7 -4 12 -2 12 6 0 8 5 19 12 26 17 17 23 15 8
-3z m472 -37 c27 -30 32 -38 25 -38 -2 0 -18 16 -37 35 -19 19 -30 35 -25 35
4 0 21 -14 37 -32z m-292 2 c0 -5 -2 -10 -4 -10 -3 0 -8 5 -11 10 -3 6 -1 10
4 10 6 0 11 -4 11 -10z m93 -85 c5 -11 -8 -1 -31 23 -23 24 -42 46 -42 50 0
10 61 -51 73 -73z m-408 45 c-10 -11 -22 -20 -28 -20 -5 0 1 9 14 20 31 25 37
25 14 0z m-280 -10 c-3 -5 -12 -10 -18 -10 -7 0 -6 4 3 10 19 12 23 12 15 0z
m226 -43 c-10 -9 -11 -8 -5 6 3 10 9 15 12 12 3 -3 0 -11 -7 -18z m-21 -27 c0
-5 -5 -10 -11 -10 -5 0 -7 5 -4 10 3 6 8 10 11 10 2 0 4 -4 4 -10z m-47 -107
c-7 -2 -13 -14 -14 -26 0 -12 -3 -16 -6 -9 -7 18 4 42 19 41 10 0 10 -2 1 -6z
m-211 -176 c3 -13 1 -32 -3 -43 -5 -13 -8 -7 -8 24 -1 46 4 55 11 19z m262
-113 c4 -11 2 -12 -14 -1 -11 6 -20 15 -20 19 0 12 28 -3 34 -18z m467 -17
c-10 -9 -11 -8 -5 6 3 10 9 15 12 12 3 -3 0 -11 -7 -18z m-440 -24 c13 -16 12
-17 -3 -4 -10 7 -18 15 -18 17 0 8 8 3 21 -13z m666 -28 c-10 -7 -25 -22 -34
-32 -8 -10 -11 -11 -7 -3 12 25 36 50 48 50 6 0 3 -7 -7 -15z m-582 -23 c-3
-3 -11 0 -18 7 -9 10 -8 11 6 5 10 -3 15 -9 12 -12z m225 3 c0 -7 -30 -13 -34
-7 -3 4 4 9 15 9 10 1 19 0 19 -2z m-96 -36 c3 -3 -6 -6 -19 -7 -13 -1 -26 2
-29 6 -5 8 40 9 48 1z m36 7 c0 -3 -4 -8 -10 -11 -5 -3 -10 -1 -10 4 0 6 5 11
10 11 6 0 10 -2 10 -4z m-405 -66 c3 -6 -1 -7 -9 -4 -18 7 -21 14 -7 14 6 0
13 -4 16 -10z m689 -15 c-4 -8 -11 -15 -16 -15 -6 0 -5 6 2 15 7 8 14 15 16
15 2 0 1 -7 -2 -15z m-659 -15 c3 -6 -1 -7 -9 -4 -18 7 -21 14 -7 14 6 0 13
-4 16 -10z m83 -55 c12 -14 18 -25 13 -25 -5 0 -16 11 -25 25 -9 14 -15 25
-13 25 2 0 13 -11 25 -25z"/>
<path d="M1224 1099 c-3 -5 -2 -13 1 -19 3 -5 2 -10 -3 -10 -5 0 -14 -10 -21
-22 -6 -13 -10 -16 -7 -7 2 9 1 22 -4 29 -11 18 -40 5 -40 -19 0 -14 -5 -19
-15 -15 -11 4 -15 0 -15 -16 0 -18 -5 -21 -23 -18 -13 3 -30 -3 -41 -14 -19
-18 -19 -18 0 -18 18 -1 18 -1 1 -11 -9 -6 -15 -14 -12 -20 4 -5 -3 -9 -14 -9
-29 0 -36 -18 -14 -42 10 -12 12 -18 6 -14 -7 4 -13 3 -13 -3 0 -5 -10 -11
-22 -13 -13 -2 -22 -8 -21 -14 1 -6 3 -65 4 -130 1 -112 10 -161 27 -150 4 3
9 22 10 42 2 21 5 41 9 44 3 3 3 -17 1 -43 -4 -39 -2 -50 13 -58 11 -5 19 -15
19 -22 0 -8 -3 -9 -8 -1 -4 6 -15 13 -25 17 -14 5 -16 2 -12 -22 11 -61 175
-192 175 -140 0 8 4 9 13 0 8 -6 17 -8 20 -4 4 3 7 -1 7 -10 0 -10 6 -18 13
-18 107 -11 123 -8 118 24 0 4 6 7 15 7 8 0 13 4 10 9 -3 5 1 14 10 21 12 10
17 11 27 1 9 -10 8 -11 -5 -6 -14 6 -18 2 -18 -14 0 -28 44 -29 67 -1 10 11
22 20 28 20 5 0 17 17 27 38 13 30 16 33 17 15 1 -13 6 -23 11 -23 17 0 24 31
9 41 -10 6 -10 9 -1 9 6 0 12 6 12 14 0 7 9 16 21 19 14 4 18 10 13 18 -5 9
-2 10 9 6 11 -4 20 1 27 13 14 25 13 30 -6 30 -13 0 -14 3 -5 13 6 8 7 17 3
22 -4 4 3 4 16 1 16 -5 24 -3 29 9 5 14 7 153 2 205 -1 8 1 27 4 41 7 34 -6
53 -31 47 -18 -5 -19 -3 -11 25 7 26 5 34 -19 55 -20 20 -37 25 -67 24 -22 -1
-34 1 -27 4 6 3 12 12 12 20 0 15 -8 17 -52 14 -20 -1 -28 3 -28 14 0 20 7 18
-118 21 -56 2 -105 -1 -108 -6z m203 -35 c-3 -3 -12 -4 -19 -1 -8 3 -5 6 6 6
11 1 17 -2 13 -5z m-38 -234 c5 0 7 -22 6 -49 -3 -61 7 -80 29 -62 13 11 16
11 16 -3 0 -9 -8 -16 -18 -16 -27 0 -34 -11 -20 -29 10 -13 8 -12 -8 1 -19 17
-21 16 -47 -12 -24 -25 -25 -30 -12 -37 20 -12 -48 -10 -89 2 -24 7 -26 9 -12
17 14 8 17 23 15 81 -2 62 0 72 15 75 12 3 16 10 13 22 -4 15 2 17 45 13 43
-4 49 -2 48 14 -4 31 3 40 7 11 2 -16 8 -28 12 -28z m256 30 c3 -5 1 -10 -4
-10 -6 0 -11 5 -11 10 0 6 2 10 4 10 3 0 8 -4 11 -10z m-210 -30 c3 -6 -1 -7
-9 -4 -18 7 -21 14 -7 14 6 0 13 -4 16 -10z m213 -120 c-7 -10 -14 -17 -17
-15 -4 4 18 35 25 35 2 0 -1 -9 -8 -20z m-556 -244 c8 -15 3 -13 -16 7 -14 15
-26 31 -26 34 0 10 31 -20 42 -41z m368 -26 c-6 -11 -13 -20 -16 -20 -2 0 0 9
6 20 6 11 13 20 16 20 2 0 0 -9 -6 -20z"/>
</g>
</svg>
