<?xml version="1.0" standalone="no"?>
<!DOCTYPE svg PUBLIC "-//W3C//DTD SVG 20010904//EN"
 "http://www.w3.org/TR/2001/REC-SVG-20010904/DTD/svg10.dtd">
<svg version="1.0" xmlns="http://www.w3.org/2000/svg"
 width="700.000000pt" height="700.000000pt" viewBox="0 0 700.000000 700.000000"
 preserveAspectRatio="xMidYMid meet">
<metadata>
Created by potrace 1.14, written by Peter Selinger 2001-2017
</metadata>
<g transform="translate(0.000000,700.000000) scale(0.100000,-0.100000)"
fill="#000000" stroke="none">
<path d="M2169 5521 c-154 -13 -290 -113 -366 -268 l-38 -78 -3 -1610 c-1
-1057 1 -1628 8 -1664 23 -123 101 -238 204 -300 72 -43 148 -61 264 -61 l92
0 0 -58 c0 -48 4 -62 23 -80 13 -12 29 -22 37 -22 7 0 51 21 97 46 94 51 94
51 189 -8 54 -34 67 -39 91 -31 36 12 53 46 53 106 l0 47 956 0 955 0 77 32
c61 25 90 45 142 97 89 90 119 149 130 258 6 50 10 756 10 1618 0 1659 2 1593
-54 1703 -54 106 -141 192 -193 192 -15 0 -34 12 -49 29 -53 64 6 61 -1333 59
-669 0 -1250 -4 -1292 -7z m2519 -186 c64 -19 153 -98 190 -169 l27 -51 9
-1128 9 -1128 -29 -56 c-27 -54 -29 -66 -35 -232 -4 -97 -12 -196 -19 -221
-15 -62 -70 -133 -126 -166 l-46 -27 -1194 -5 -1194 -5 0 1595 c0 877 3 1598
7 1601 3 4 534 7 1178 7 1020 0 1178 -2 1223 -15z m-2588 -90 l0 -63 -42 -25
c-24 -14 -56 -39 -72 -56 -50 -52 -58 -36 -30 60 12 42 28 66 70 107 30 29 59
50 64 47 6 -3 10 -35 10 -70z m0 -394 l0 -99 -37 -7 c-20 -4 -54 -15 -75 -26
-20 -10 -40 -19 -43 -19 -8 0 -6 143 3 156 11 18 124 94 139 94 10 0 13 -23
13 -99z m-2 -357 l3 -71 -32 -14 c-18 -7 -52 -28 -76 -46 -24 -18 -46 -33 -49
-33 -4 0 -4 31 -2 68 6 80 24 112 82 147 62 38 71 32 74 -51z m2 -358 l0 -64
-67 -22 c-38 -11 -74 -24 -80 -26 -14 -6 -18 51 -6 81 7 19 119 95 140 95 9 0
13 -17 13 -64z m-2 -317 l3 -65 -50 -24 c-28 -13 -60 -34 -72 -47 -13 -12 -27
-23 -32 -23 -15 0 -1 127 17 155 17 25 103 76 121 71 6 -1 11 -32 13 -67z m2
-414 l0 -115 -35 -14 c-19 -8 -55 -29 -80 -46 l-45 -31 0 112 c0 109 1 112 27
133 32 25 115 76 126 76 4 0 7 -52 7 -115z m-2 -397 c-3 -50 -4 -52 -50 -77
-25 -14 -57 -36 -70 -48 -35 -33 -41 -29 -36 28 6 59 30 95 84 126 64 37 76
32 72 -29z m2 -392 l0 -113 -41 -7 c-23 -4 -54 -13 -70 -21 -15 -8 -33 -15
-39 -15 -6 0 -10 37 -10 99 l0 100 63 35 c97 56 97 56 97 -78z m0 -356 l0 -70
-58 -29 c-32 -16 -64 -36 -71 -45 -26 -31 -34 -17 -28 50 6 79 25 109 88 141
67 34 69 32 69 -47z m2817 -296 c-11 -107 -93 -205 -195 -234 -24 -6 -366 -10
-969 -10 l-933 0 0 90 0 89 953 3 953 3 66 34 c37 18 77 44 89 57 35 37 42 30
36 -32z m-2682 -64 l96 0 -3 -87 -3 -88 -82 -3 c-46 -2 -100 2 -121 8 -47 12
-122 67 -141 103 -13 24 -12 29 5 48 10 12 39 31 63 43 l43 23 24 -24 c21 -21
32 -23 119 -23z"/>
<path d="M4307 5147 c-12 -12 -37 -44 -55 -70 -18 -27 -46 -56 -63 -65 -59
-33 -79 -53 -79 -81 0 -34 14 -52 66 -84 42 -26 67 -53 107 -117 20 -30 28
-35 62 -35 38 0 42 3 80 61 24 37 56 72 83 89 90 57 92 102 8 158 -37 24 -65
54 -87 91 -29 49 -61 76 -90 76 -5 0 -20 -10 -32 -23z m83 -226 c-4 -9 -18
-25 -30 -36 -21 -19 -21 -19 -45 10 -31 38 -31 41 2 71 l26 24 28 -26 c20 -20
26 -31 19 -43z"/>
<path d="M2681 5044 c-38 -32 -49 -80 -27 -122 21 -42 50 -55 100 -49 84 12
116 103 57 166 -38 40 -86 42 -130 5z"/>
<path d="M3342 4959 c-122 -21 -274 -102 -365 -194 -70 -70 -113 -138 -148
-237 l-31 -86 -65 -32 c-191 -94 -323 -312 -323 -532 0 -105 46 -283 101 -390
64 -125 173 -231 299 -291 53 -25 103 -54 113 -64 15 -18 15 -23 -9 -82 -15
-38 -28 -93 -31 -137 -6 -72 -7 -74 -45 -101 -22 -15 -53 -50 -69 -78 -25 -43
-29 -60 -29 -128 0 -43 5 -87 10 -97 6 -11 8 -31 4 -45 l-6 -26 -24 34 c-87
129 -294 61 -294 -97 0 -96 61 -156 160 -156 86 0 160 60 160 131 0 41 12 42
30 0 21 -44 77 -104 121 -127 48 -24 127 -29 190 -11 70 21 131 73 164 142 24
49 30 54 68 60 164 28 259 123 290 291 l12 69 65 11 c215 36 370 144 451 314
33 67 35 69 94 91 94 34 166 82 248 168 89 93 131 173 176 335 27 96 31 125
31 238 0 112 -3 140 -26 206 -80 240 -302 438 -522 468 -60 8 -61 8 -99 64
-46 67 -145 160 -215 203 -94 56 -198 86 -325 91 -60 3 -132 1 -161 -5z m247
-180 c130 -29 273 -143 341 -269 l35 -65 80 -6 c132 -11 234 -59 326 -156 104
-109 143 -218 137 -382 -3 -94 -7 -114 -35 -174 -38 -79 -116 -166 -187 -206
-49 -28 -130 -54 -208 -66 -34 -5 -38 -10 -54 -58 -26 -81 -49 -120 -104 -180
-64 -70 -146 -112 -255 -130 l-80 -14 -52 57 c-30 32 -78 71 -115 91 -57 31
-70 34 -148 34 -47 0 -99 -3 -115 -7 -27 -6 -33 -3 -54 27 -12 19 -35 64 -50
101 l-27 68 -85 20 c-143 35 -240 110 -299 229 -78 160 -56 340 59 469 46 52
153 112 220 123 37 6 41 10 46 43 22 147 51 214 126 296 100 109 225 165 369
165 47 1 105 -4 129 -10z m-260 -1709 c106 -54 140 -177 74 -272 -80 -117
-283 -96 -332 35 -15 40 -14 123 3 155 47 90 165 128 255 82z m-327 -425 c32
-30 63 -55 68 -55 4 0 11 -7 14 -16 10 -26 -46 -74 -87 -74 -86 0 -138 118
-80 183 9 9 18 17 21 17 2 0 31 -25 64 -55z m-394 -262 c-2 -10 -10 -18 -18
-18 -8 0 -16 8 -18 18 -2 12 3 17 18 17 15 0 20 -5 18 -17z"/>
<path d="M4568 3390 c-9 -6 -22 -25 -28 -44 -21 -66 12 -116 78 -116 44 0 68
14 87 51 18 33 14 55 -16 93 -16 21 -29 26 -62 26 -23 0 -50 -5 -59 -10z"/>
<path d="M4338 2929 c-10 -5 -36 -37 -59 -70 -31 -46 -59 -72 -119 -110 -129
-82 -128 -124 1 -213 55 -38 84 -67 114 -113 60 -92 120 -101 163 -25 23 41
89 107 142 142 67 44 90 72 90 106 0 36 -11 47 -120 121 -30 21 -69 58 -86 83
-66 91 -85 103 -126 79z m96 -347 l-65 -63 -68 63 -69 63 31 24 c18 14 48 41
67 62 l34 37 68 -62 67 -61 -65 -63z"/>
</g>
</svg>
