<?xml version="1.0" standalone="no"?>
<!DOCTYPE svg PUBLIC "-//W3C//DTD SVG 20010904//EN"
 "http://www.w3.org/TR/2001/REC-SVG-20010904/DTD/svg10.dtd">
<svg version="1.0" xmlns="http://www.w3.org/2000/svg"
 width="150.000000pt" height="150.000000pt" viewBox="0 0 150.000000 150.000000"
 preserveAspectRatio="xMidYMid meet">
<metadata>
Created by potrace 1.14, written by Peter Selinger 2001-2017
</metadata>
<g transform="translate(0.000000,150.000000) scale(0.100000,-0.100000)"
fill="#000000" stroke="none">
<path d="M690 1293 c-8 -3 -37 -16 -65 -28 -76 -33 -445 -192 -488 -209 -20
-8 -40 -22 -43 -31 -9 -23 21 -52 61 -58 29 -5 98 -32 220 -87 87 -40 299
-110 344 -115 50 -6 72 -1 211 49 237 83 427 167 436 191 9 22 -21 52 -65 66
-36 12 -50 17 -196 82 -131 57 -117 61 -175 -45 -87 -156 -99 -175 -136 -207
-29 -26 -43 -31 -84 -31 -57 0 -83 19 -78 59 2 19 9 27 28 29 97 10 101 14
194 185 l47 85 -43 20 c-106 50 -133 58 -168 45z"/>
<path d="M316 744 c-17 -43 -5 -146 25 -224 50 -131 139 -224 259 -269 82 -31
137 -36 211 -17 170 44 275 144 329 317 21 68 27 193 10 204 -8 5 -122 -34
-323 -111 -77 -29 -143 -15 -420 90 -80 31 -83 31 -91 10z"/>
<path d="M1298 674 c-32 -17 -58 -62 -58 -100 0 -40 59 -94 103 -94 43 0 82
30 97 75 14 42 6 71 -28 108 -29 31 -71 35 -114 11z"/>
</g>
</svg>
