<?xml version="1.0" standalone="no"?>
<!DOCTYPE svg PUBLIC "-//W3C//DTD SVG 20010904//EN"
 "http://www.w3.org/TR/2001/REC-SVG-20010904/DTD/svg10.dtd">
<svg version="1.0" xmlns="http://www.w3.org/2000/svg"
 width="1106.000000pt" height="1106.000000pt" viewBox="0 0 1106.000000 1106.000000"
 preserveAspectRatio="xMidYMid meet">
<metadata>
Created by potrace 1.14, written by Peter Selinger 2001-2017
</metadata>
<g transform="translate(0.000000,1106.000000) scale(0.100000,-0.100000)"
fill="#000000" stroke="none">
<path d="M7490 11057 c-3 -3 -21 -7 -40 -10 -19 -2 -46 -9 -60 -15 -14 -6 -90
-36 -170 -67 -80 -31 -154 -60 -165 -64 -11 -5 -51 -21 -90 -36 -107 -42 -138
-55 -157 -65 -10 -6 -23 -10 -29 -10 -6 0 -25 -6 -42 -14 -18 -8 -75 -31 -127
-51 -52 -20 -108 -43 -125 -50 -16 -7 -46 -18 -65 -25 -19 -7 -48 -19 -65 -26
-54 -23 -240 -96 -250 -99 -5 -1 -23 -7 -40 -14 -16 -7 -82 -33 -145 -57 -63
-25 -127 -52 -142 -60 -14 -8 -35 -14 -46 -14 -12 0 -24 -5 -27 -10 -4 -6 -11
-8 -16 -5 -5 4 -9 2 -9 -4 0 -5 -14 -13 -32 -16 -18 -4 -39 -11 -48 -15 -24
-13 -88 -40 -93 -40 -2 0 -22 -8 -43 -17 -22 -9 -41 -17 -44 -18 -6 -1 -154
-58 -343 -131 -75 -30 -144 -54 -151 -54 -8 0 -17 -4 -21 -9 -3 -5 -20 -13
-38 -16 -101 -22 -195 -114 -183 -179 16 -87 73 -133 213 -169 59 -16 115 -31
123 -35 8 -3 20 -7 25 -7 30 -5 41 -18 39 -48 -1 -17 -3 -34 -4 -37 -1 -3 -1
-9 0 -15 5 -22 3 -226 -3 -231 -3 -3 -2 -16 3 -29 5 -13 6 -25 4 -28 -3 -3 -7
-117 -9 -253 -5 -352 -12 -429 -48 -551 -18 -59 -45 -105 -133 -224 -35 -48
-64 -89 -64 -93 0 -4 -7 -14 -15 -23 -24 -23 -9 -88 29 -131 35 -39 93 -63
144 -61 70 2 71 2 78 -38 14 -78 95 -146 174 -147 85 0 143 51 168 149 38 148
42 505 8 680 -4 20 -12 84 -22 160 -8 67 -14 845 -6 845 4 0 23 -5 42 -10 19
-6 48 -13 64 -16 16 -2 36 -9 45 -13 9 -5 19 -9 24 -10 4 -1 8 -1 10 -2 1 0
11 -2 22 -4 23 -4 32 -7 95 -24 25 -8 52 -15 60 -16 8 -2 15 -4 15 -5 0 -1 9
-3 19 -5 11 -2 29 -6 40 -9 12 -3 26 -6 31 -7 6 0 17 -5 25 -9 8 -4 33 -11 54
-14 22 -4 45 -11 53 -17 7 -6 13 -9 13 -6 0 2 33 -4 73 -15 39 -11 96 -26 126
-34 83 -22 78 -32 85 141 2 44 4 135 5 201 l1 121 58 26 c31 14 80 34 107 45
28 10 59 23 70 27 11 5 22 9 25 10 11 4 47 18 87 35 23 10 44 16 47 12 3 -3 6
0 6 6 0 7 7 12 15 12 8 0 29 7 47 14 18 8 71 29 118 47 47 17 99 37 115 44 25
10 96 36 115 40 3 1 14 5 25 9 73 28 102 37 172 55 43 11 97 22 120 26 23 3
57 8 75 11 38 5 269 5 313 0 17 -2 59 -7 95 -10 36 -4 81 -11 100 -16 19 -5
53 -11 75 -14 22 -2 47 -7 55 -10 8 -3 26 -7 40 -10 14 -2 66 -14 115 -26 50
-12 98 -24 108 -26 9 -2 25 -6 35 -8 22 -6 181 -52 247 -71 28 -9 61 -17 74
-20 13 -2 25 -6 28 -8 2 -2 6 -37 8 -78 17 -257 23 -341 28 -345 1 -1 34 8 72
22 39 13 75 26 80 28 6 1 23 8 39 15 15 6 63 25 105 42 42 17 90 37 106 44 17
8 55 23 85 35 30 12 69 27 85 35 31 13 55 22 68 24 4 0 22 8 40 18 17 9 34 18
37 18 11 3 47 17 78 31 19 8 132 52 252 99 120 46 239 94 265 106 55 26 84 67
80 112 -9 85 -46 124 -145 156 -114 36 -122 38 -320 91 -102 28 -201 54 -220
60 -19 5 -83 23 -141 40 -58 16 -114 31 -125 33 -10 1 -24 6 -30 9 -6 4 -24
10 -40 13 -16 3 -40 8 -53 11 -13 3 -32 9 -42 14 -10 6 -29 10 -43 10 -14 0
-27 4 -31 9 -3 6 -13 9 -23 9 -9 -1 -46 9 -82 20 -36 12 -76 24 -90 26 -38 8
-301 83 -332 95 -16 6 -28 8 -28 6 0 -2 -11 0 -25 5 -14 5 -36 12 -48 15 -12
3 -56 14 -97 26 -41 11 -91 24 -110 29 -19 4 -69 18 -110 30 -278 80 -560 137
-580 117z"/>
<path d="M7586 10043 c-1 -2 -32 -5 -67 -8 -122 -9 -183 -23 -344 -77 -106
-35 -397 -149 -473 -184 -29 -13 -55 -24 -57 -24 -3 0 -43 -18 -89 -39 l-84
-39 4 -149 c2 -81 5 -207 7 -279 l3 -132 -30 -35 c-56 -63 -71 -81 -121 -152
-55 -76 -122 -181 -148 -232 -39 -77 -46 -90 -65 -133 -11 -25 -27 -68 -36
-96 -16 -48 -20 -65 -32 -123 -3 -14 -7 -28 -9 -31 -2 -4 -7 -22 -10 -41 -3
-19 -10 -56 -15 -84 -5 -27 -11 -71 -15 -97 -3 -27 -7 -69 -10 -95 -3 -27 -8
-61 -10 -78 -2 -16 -7 -60 -10 -96 -4 -36 -8 -84 -10 -105 -2 -21 -6 -57 -9
-79 -3 -22 -8 -60 -11 -85 -10 -77 -14 -104 -20 -130 -3 -14 -8 -41 -11 -60
-3 -19 -10 -53 -16 -75 -13 -49 -13 -51 -22 -100 -4 -22 -11 -49 -16 -60 -5
-11 -18 -51 -31 -90 -12 -38 -34 -96 -49 -127 -16 -31 -26 -59 -22 -62 3 -3 0
-6 -6 -6 -7 0 -12 -4 -12 -9 0 -10 -69 -132 -79 -141 -3 -3 -20 -25 -36 -50
-71 -107 -295 -299 -425 -365 -19 -10 -38 -23 -42 -29 -4 -6 -8 -7 -8 -3 0 4
-19 -3 -42 -16 -24 -13 -74 -36 -113 -51 -38 -15 -79 -31 -90 -36 -20 -9 -208
-69 -235 -75 -8 -2 -62 -15 -120 -29 -103 -25 -129 -30 -200 -42 -19 -3 -39
-8 -43 -11 -4 -2 -22 -6 -40 -8 -18 -2 -72 -8 -120 -14 -49 -7 -121 -14 -160
-17 -89 -7 -449 -12 -460 -7 -4 3 -42 7 -85 9 -137 7 -325 54 -457 114 -326
147 -552 313 -708 520 -32 41 -62 81 -67 88 -6 6 -7 12 -3 12 4 0 3 4 -3 8
-32 22 -111 228 -129 337 -2 11 -4 21 -5 23 -3 2 -4 5 -14 52 -13 60 -55 165
-85 212 -74 117 -242 172 -387 127 -71 -22 -164 -81 -213 -135 -38 -42 -104
-147 -116 -184 -4 -14 -11 -30 -16 -35 -4 -6 -13 -33 -20 -60 -11 -48 -13 -61
-24 -122 -2 -16 -7 -64 -10 -108 -7 -94 -13 -147 -17 -149 -2 -1 -37 -19 -79
-39 -73 -35 -177 -125 -171 -148 1 -5 -2 -9 -7 -9 -8 0 -29 -48 -37 -82 -1 -5
-3 -11 -4 -15 -2 -5 -4 -12 -5 -18 -2 -5 -4 -12 -5 -15 -11 -29 -20 -132 -20
-215 1 -63 7 -170 11 -170 1 0 3 -11 5 -25 4 -34 14 -82 21 -100 4 -8 7 -22 8
-30 2 -21 13 -49 37 -96 l21 -41 -33 -59 c-93 -165 -111 -227 -106 -364 3 -99
17 -170 44 -230 8 -19 15 -41 15 -47 0 -7 4 -13 9 -13 4 0 8 -7 8 -15 0 -13
35 -72 60 -102 6 -7 8 -13 5 -13 -3 0 3 -8 13 -18 67 -71 150 -168 163 -193 9
-16 15 -44 13 -62 -15 -135 5 -264 56 -372 17 -35 30 -68 30 -74 0 -6 4 -11 8
-11 5 0 23 -23 41 -50 88 -135 280 -288 476 -379 39 -17 78 -36 87 -41 10 -6
27 -10 38 -10 11 0 20 -5 20 -10 0 -6 3 -9 8 -8 4 1 30 -5 57 -14 44 -14 158
-44 204 -53 9 -2 45 -10 81 -18 36 -8 81 -18 101 -21 20 -3 48 -10 62 -15 14
-5 27 -8 29 -5 3 2 18 0 34 -5 16 -5 42 -12 57 -16 24 -5 35 -20 73 -103 89
-189 171 -346 197 -376 9 -11 17 -23 17 -28 0 -13 111 -171 197 -280 84 -106
263 -293 348 -363 27 -22 53 -45 59 -50 6 -6 31 -26 56 -45 25 -19 47 -38 48
-42 2 -5 9 -8 15 -8 7 -1 28 -14 47 -30 19 -17 40 -30 46 -30 7 0 14 -4 16 -9
4 -13 165 -109 288 -172 89 -47 222 -108 358 -165 17 -8 47 -20 65 -28 17 -8
43 -17 57 -21 79 -22 106 -47 130 -120 31 -97 95 -209 155 -269 66 -68 145
-132 145 -119 0 4 4 3 8 -2 4 -6 19 -16 35 -22 15 -7 27 -21 28 -30 1 -10 2
-36 4 -58 3 -36 8 -633 6 -662 -1 -8 -43 -12 -148 -13 -82 -1 -152 -1 -158 -1
-36 -1 -256 1 -285 2 -19 1 -42 1 -50 0 -8 0 -58 0 -110 0 -52 1 -101 0 -107
0 -21 -2 -41 -2 -98 -2 -30 0 -61 0 -67 0 -7 -1 -60 -1 -118 0 -58 0 -112 0
-120 0 -48 -1 -421 0 -450 1 -19 1 -42 2 -50 2 -8 -1 -103 -1 -210 -1 -107 1
-213 1 -235 1 -22 0 -44 -1 -50 -2 -5 -1 -14 -2 -20 -1 -5 1 -50 2 -100 1 -49
-1 -94 -1 -100 -1 -5 0 -37 0 -70 1 -112 2 -790 -10 -845 -15 -79 -7 -158 -32
-169 -53 -15 -29 -22 -172 -9 -196 6 -12 32 -43 57 -69 l46 -49 4215 5 c2318
3 4265 8 4325 11 187 9 200 14 238 86 40 75 32 158 -19 219 -42 50 -64 53
-449 57 -198 3 -448 4 -555 4 -107 -1 -203 -1 -212 -1 -10 0 -43 0 -73 0 -30
0 -61 0 -67 0 -7 0 -94 1 -193 2 -99 0 -184 0 -190 -1 -5 -1 -12 -2 -15 -1 -3
1 -174 4 -380 6 -583 5 -525 1 -568 44 -20 20 -47 50 -60 67 -27 34 -66 53
-144 70 -32 6 -237 16 -323 14 -102 -1 -114 -1 -181 1 l-61 2 0 283 0 284 67
40 c63 37 142 112 179 170 8 14 18 27 22 30 26 20 92 196 91 241 -1 36 33 69
106 105 31 16 60 33 63 37 3 5 9 8 13 7 10 -2 220 103 224 113 2 4 8 7 14 7
15 0 226 122 305 176 35 24 66 44 68 44 4 0 118 83 155 113 9 7 33 25 55 42
22 16 45 34 51 40 6 5 42 37 80 70 80 70 236 226 291 291 21 25 49 59 63 74
58 67 190 246 190 259 0 5 4 11 9 13 32 11 341 566 341 611 0 7 4 17 9 22 11
12 77 189 98 260 8 28 17 57 20 65 3 8 8 24 10 34 2 11 10 46 18 77 20 77 52
241 60 309 4 30 9 69 12 85 20 124 31 558 18 700 -13 135 -13 140 -15 140 -2
0 -7 28 -13 75 -3 19 -7 42 -10 50 -3 8 -8 34 -11 58 -3 24 -8 47 -10 51 -3 4
-8 21 -10 37 -5 23 -36 137 -60 219 -12 39 -99 271 -121 320 -32 73 -38 89
-37 98 1 4 -3 7 -8 7 -6 0 -10 5 -10 10 0 6 -18 49 -41 96 -42 91 -83 178
-116 254 -23 52 -63 158 -68 180 -2 8 -8 35 -13 58 -6 24 -9 71 -7 104 3 76
54 180 128 260 61 66 70 78 117 138 19 25 38 47 43 48 4 2 7 9 7 15 0 6 7 19
17 29 18 20 24 30 72 121 36 69 29 63 166 122 46 20 132 59 210 96 39 18 76
34 84 35 8 2 17 7 20 12 3 5 17 13 31 17 14 4 27 10 30 14 3 3 25 16 50 28
169 84 343 221 352 277 4 24 -22 106 -34 106 -4 0 -8 6 -8 13 0 28 -170 173
-260 223 -19 10 -37 21 -40 24 -24 24 -278 146 -355 170 -80 25 -138 78 -195
178 -8 15 -20 31 -26 37 -5 5 -28 32 -50 60 -96 121 -273 280 -402 360 -37 23
-118 88 -125 102 -5 8 -10 58 -12 111 -2 53 -5 97 -5 97 -1 0 -3 27 -5 60 -2
33 -7 80 -10 105 -3 25 -6 51 -7 58 -1 6 -9 12 -18 12 -9 0 -41 8 -71 19 -30
10 -57 19 -61 20 -5 0 -9 1 -10 2 -2 0 -10 2 -18 4 -8 2 -35 8 -60 15 -71 18
-213 51 -240 56 -14 2 -45 9 -70 14 -88 19 -142 25 -280 35 -134 9 -200 12
-204 8z m282 -847 c7 -4 12 -2 12 4 0 6 4 8 10 5 13 -8 44 -14 92 -17 22 -1
42 -6 44 -10 3 -5 9 -6 13 -4 4 3 25 0 47 -5 21 -5 50 -12 64 -15 62 -13 272
-93 278 -106 2 -4 10 -4 18 -1 8 3 14 0 14 -6 0 -6 4 -11 9 -11 9 0 152 -79
161 -89 3 -4 30 -25 60 -48 90 -69 221 -221 245 -285 3 -7 -29 -49 -71 -93
-42 -44 -88 -96 -103 -115 -14 -19 -28 -37 -31 -40 -17 -17 -63 -93 -83 -140
-23 -51 -27 -67 -44 -145 -14 -70 -3 -217 20 -260 6 -11 10 -22 10 -25 -1 -3
7 -21 17 -40 17 -34 58 -78 110 -118 21 -17 22 -21 10 -35 -8 -8 -31 -34 -49
-57 -19 -23 -40 -48 -46 -54 -6 -6 -24 -29 -40 -51 -17 -22 -35 -44 -41 -50
-47 -43 -132 -217 -149 -306 -37 -181 -21 -365 45 -514 12 -27 28 -66 37 -85
27 -63 50 -113 95 -210 25 -52 55 -117 68 -145 12 -27 36 -79 52 -115 45 -98
45 -99 76 -180 123 -318 153 -493 154 -910 0 -226 -4 -310 -16 -310 -4 0 -3
-6 3 -13 6 -8 9 -16 7 -18 -4 -4 -8 -38 -22 -168 -2 -24 -6 -46 -8 -50 -3 -4
-7 -24 -10 -46 -6 -34 -34 -154 -45 -192 -1 -2 -2 -6 -3 -10 -13 -61 -100
-284 -163 -418 -21 -44 -37 -82 -36 -84 2 -2 -3 -7 -11 -12 -7 -5 -13 -12 -14
-16 -5 -46 -165 -302 -298 -478 -133 -176 -345 -395 -491 -510 -21 -16 -43
-35 -49 -41 -15 -13 -124 -96 -145 -109 -9 -5 -30 -20 -46 -31 -171 -123 -537
-305 -760 -379 -172 -57 -404 -119 -413 -110 -3 3 -10 1 -16 -4 -6 -5 -31 -12
-56 -16 -25 -4 -58 -9 -75 -11 -16 -3 -41 -7 -55 -8 -14 -2 -25 -4 -25 -6 0
-1 -16 -4 -35 -5 -19 -2 -53 -6 -75 -9 -171 -24 -558 -25 -760 -2 -93 11 -132
16 -160 22 -16 3 -37 7 -45 8 -60 8 -117 18 -130 23 -8 3 -28 7 -43 9 -88 12
-405 113 -559 178 -21 9 -41 17 -45 18 -5 1 -39 17 -78 37 -38 19 -72 36 -75
37 -33 10 -70 30 -70 37 0 4 -4 5 -10 2 -5 -3 -10 -3 -10 2 0 4 -15 14 -32 22
-18 8 -35 17 -38 20 -3 3 -25 17 -50 30 -75 40 -240 153 -340 234 -83 66 -255
235 -315 308 -39 47 -115 152 -132 180 -10 16 -21 29 -25 29 -4 0 -8 5 -8 11
0 6 -22 47 -48 92 -26 45 -65 118 -86 162 -106 221 -160 325 -169 325 -6 0 -8
3 -4 6 11 11 -67 85 -108 104 -45 20 -105 39 -150 46 -16 3 -48 10 -70 16 -22
7 -46 10 -54 9 -7 -1 -20 1 -30 5 -9 4 -23 8 -31 9 -8 1 -28 6 -45 9 -16 4
-39 9 -50 11 -11 2 -45 11 -75 20 -30 9 -79 22 -108 30 -64 18 -217 77 -264
101 -18 10 -36 18 -39 19 -12 0 -146 91 -178 120 -56 50 -114 126 -105 135 8
7 81 -12 149 -41 31 -12 36 -14 70 -23 11 -3 45 -12 75 -20 30 -8 71 -17 90
-20 19 -3 46 -8 60 -11 57 -12 186 -12 227 0 78 23 140 114 128 187 -13 78
-124 152 -256 172 -29 4 -86 18 -164 40 -14 4 -39 14 -122 47 -264 107 -542
329 -610 489 -17 42 -28 120 -17 120 8 0 30 -17 94 -73 14 -12 52 -44 85 -70
33 -26 69 -55 80 -64 56 -47 289 -191 369 -228 109 -51 150 -59 214 -40 90 27
121 93 104 222 -2 12 -91 107 -107 114 -15 6 -128 83 -143 96 -6 6 -21 15 -32
18 -11 3 -20 11 -20 16 0 5 -6 9 -14 9 -8 0 -16 4 -18 8 -1 5 -30 28 -63 53
-102 75 -267 232 -310 293 -11 16 -29 38 -39 49 -10 11 -45 72 -76 136 -115
231 -130 333 -71 450 31 61 34 60 109 -56 26 -39 63 -91 81 -115 44 -54 301
-311 359 -358 24 -19 54 -43 65 -54 44 -37 144 -105 215 -144 129 -73 212 -85
277 -41 52 36 74 86 70 157 -5 84 -28 110 -200 232 -38 27 -81 58 -95 67 -33
24 -186 160 -226 201 -131 135 -222 270 -275 410 -5 12 -13 32 -18 45 -23 57
-34 119 -36 197 -2 47 0 90 3 95 4 6 7 17 8 25 3 36 17 78 34 100 l19 25 11
-30 c6 -17 13 -39 14 -50 1 -12 5 -25 8 -30 3 -6 11 -35 18 -65 7 -30 15 -59
19 -65 3 -5 6 -13 7 -17 1 -5 2 -9 4 -10 1 -2 3 -10 5 -18 1 -8 10 -32 18 -53
9 -20 17 -39 17 -42 0 -2 16 -32 35 -66 19 -33 35 -63 35 -66 0 -12 132 -191
185 -249 56 -62 92 -97 145 -144 35 -30 71 -62 80 -70 8 -9 32 -26 53 -39 20
-12 37 -27 37 -32 0 -5 6 -9 14 -9 8 0 21 -6 28 -13 41 -39 217 -139 393 -224
186 -89 175 -79 122 -113 -79 -50 -139 -130 -152 -203 -17 -89 83 -244 245
-380 42 -36 54 -55 40 -67 -16 -14 -59 -130 -63 -170 -5 -54 14 -149 44 -221
21 -50 75 -147 88 -159 5 -4 64 -76 111 -134 8 -10 35 -37 59 -60 24 -22 51
-48 60 -56 9 -9 39 -35 67 -58 51 -42 61 -58 84 -142 50 -182 250 -399 503
-548 48 -29 94 -52 102 -52 8 0 15 -4 15 -10 0 -5 6 -10 13 -10 7 0 31 -8 53
-19 56 -27 240 -88 294 -97 8 -2 34 -8 58 -14 24 -5 62 -13 85 -16 23 -3 53
-8 67 -10 150 -26 559 -26 683 1 12 2 41 7 65 9 24 3 46 7 50 10 4 2 23 7 42
10 49 8 68 12 120 26 63 16 263 81 275 89 6 4 37 18 70 31 78 31 313 154 325
170 3 4 21 15 39 26 19 10 46 28 59 39 13 11 26 20 30 20 3 0 15 8 26 17 12
10 50 41 86 70 146 118 340 314 340 342 0 4 8 16 18 27 24 25 42 85 42 138 0
72 -46 136 -124 171 -35 16 -44 17 -83 5 -25 -8 -52 -20 -61 -28 -10 -8 -27
-23 -40 -33 -13 -10 -65 -59 -116 -109 -51 -49 -120 -114 -152 -142 -32 -29
-68 -61 -79 -71 -38 -35 -174 -132 -184 -132 -6 0 -11 -4 -11 -10 0 -5 -7 -10
-15 -10 -8 0 -15 -4 -15 -10 0 -5 -4 -10 -8 -10 -5 0 -44 -19 -88 -43 -43 -23
-99 -51 -124 -61 -25 -11 -64 -28 -88 -38 -56 -25 -239 -86 -276 -92 -16 -3
-52 -10 -80 -15 -141 -29 -222 -36 -401 -36 -149 1 -234 6 -295 20 -14 3 -36
9 -50 12 -14 3 -33 5 -42 5 -10 0 -20 3 -23 9 -4 5 -16 9 -29 9 -35 0 -161 46
-266 97 -52 26 -97 49 -100 53 -3 3 -31 23 -63 45 -32 22 -54 41 -47 43 9 3
61 -4 90 -13 8 -2 150 -15 203 -18 26 -2 51 1 54 6 3 4 11 6 18 3 23 -8 112
41 140 78 49 64 35 161 -32 223 -23 22 -100 50 -158 58 -16 2 -46 7 -65 9 -19
3 -53 8 -75 11 -253 36 -487 122 -636 234 -72 55 -222 199 -231 223 -10 24 6
39 60 57 37 13 64 16 99 10 66 -10 103 -18 122 -28 9 -5 22 -6 29 -4 6 3 12 1
12 -4 0 -5 9 -10 20 -11 44 -4 50 -6 50 -14 0 -5 4 -7 9 -4 4 3 23 1 42 -4 39
-12 185 -36 274 -46 33 -4 146 -7 250 -6 329 1 479 18 585 64 119 52 144 198
50 295 -34 34 -44 39 -77 36 -127 -11 -665 -18 -728 -9 -16 2 -59 7 -95 11
-36 4 -82 11 -103 16 -21 6 -50 12 -65 14 -45 7 -56 10 -69 18 -7 5 -17 6 -22
2 -5 -3 -12 -1 -16 5 -3 5 -16 10 -29 10 -12 0 -26 3 -30 7 -3 4 -12 8 -19 9
-47 8 -309 127 -382 174 -16 11 -37 23 -45 27 -8 5 -37 24 -64 43 l-48 35 160
77 c88 42 170 79 183 82 13 3 35 7 49 11 26 5 112 14 210 20 134 9 218 16 250
20 19 2 60 7 90 11 30 4 62 8 70 9 27 5 94 16 125 20 108 17 368 73 450 99 6
1 30 8 55 15 95 27 236 74 248 83 6 6 12 8 12 5 0 -11 251 101 261 116 3 5 8
7 10 5 13 -11 198 115 309 212 71 62 208 203 264 272 47 57 146 211 146 225 0
5 16 38 35 75 18 37 35 75 37 85 2 10 6 20 9 23 18 16 117 360 135 469 3 18 8
43 10 55 13 65 24 138 30 191 3 33 8 69 10 80 3 11 7 45 9 75 3 30 7 75 10
100 3 25 7 70 11 100 3 30 7 71 9 90 2 19 6 51 9 70 3 19 7 53 10 75 2 22 7
47 10 55 3 8 7 31 10 50 11 75 116 320 137 320 5 0 8 4 6 9 -8 30 194 267 306
359 57 46 162 114 229 148 65 33 213 87 268 98 14 3 36 7 50 10 74 17 143 27
215 32 44 4 81 7 82 8 6 5 132 -2 141 -8z m1367 -861 c22 -2 40 -4 40 -5 0 -1
12 -3 27 -5 16 -2 37 -6 47 -10 11 -3 29 -8 40 -10 98 -22 195 -64 204 -90 7
-17 -25 -51 -57 -61 -12 -4 -32 -14 -46 -23 -21 -14 -186 -91 -315 -146 -28
-12 -103 -38 -115 -40 -3 0 -27 -8 -55 -18 -67 -23 -139 -25 -159 -5 -22 22
-34 86 -24 128 5 19 10 43 13 53 23 96 148 213 248 233 11 2 21 5 23 7 2 2 23
2 46 0 24 -2 61 -6 83 -8z m-2550 -6764 c8 -14 -77 -82 -120 -96 -43 -15 -128
-13 -149 4 -8 7 -12 19 -9 27 3 8 8 13 11 10 2 -3 12 -1 22 4 9 5 28 11 41 14
13 3 60 14 104 25 44 10 83 19 87 20 4 0 9 -3 13 -8z m-1611 -60 c23 -4 53 -7
69 -6 15 1 27 -1 27 -6 0 -4 9 -5 20 -2 11 3 27 -1 36 -8 14 -12 14 -14 -2
-26 -47 -34 -244 14 -244 59 0 6 11 7 27 3 14 -3 45 -10 67 -14z m819 -54 c57
-5 86 -22 87 -53 0 -18 70 -105 124 -157 47 -43 191 -127 220 -127 7 0 13 -6
13 -12 1 -7 4 -47 7 -88 18 -211 22 -384 12 -500 -11 -138 -16 -150 -64 -144
-15 2 -74 6 -132 9 -187 10 -190 11 -260 84 -91 95 -119 102 -459 115 -68 3
-125 7 -128 10 -8 7 -7 350 1 419 6 50 14 75 33 98 14 16 28 27 31 24 3 -3 26
7 51 21 95 55 195 149 239 226 14 26 37 52 49 59 24 13 92 27 108 23 6 -2 36
-5 68 -7z"/>
<path d="M7938 8599 c-15 -4 -29 -5 -32 -2 -3 3 -12 0 -21 -7 -8 -7 -15 -10
-15 -7 0 9 -44 -16 -79 -45 -43 -36 -63 -89 -66 -170 -2 -86 17 -130 80 -186
74 -65 131 -73 221 -30 161 75 194 264 68 383 -45 43 -121 74 -156 64z"/>
<path d="M7725 6561 c-64 -31 -95 -80 -110 -176 -33 -203 -45 -423 -26 -500
10 -41 60 -94 91 -96 87 -7 112 -4 150 21 44 27 86 99 94 160 3 19 8 53 11 75
31 205 25 409 -13 461 -44 59 -136 84 -197 55z"/>
<path d="M7496 5240 c-61 -8 -76 -25 -149 -175 -109 -219 -167 -381 -161 -446
6 -61 57 -140 109 -166 44 -23 133 9 182 66 40 45 190 370 209 451 4 19 9 42
11 50 9 36 3 102 -12 129 -18 35 -67 74 -110 88 -16 5 -52 6 -79 3z"/>
</g>
</svg>
